<svg width="699" height="189" viewBox="0 0 699 189" fill="none" xmlns="http://www.w3.org/2000/svg">
<mask id="path-1-outside-1_882_1990" maskUnits="userSpaceOnUse" x="27" y="31" width="650" height="115" fill="black">
<rect fill="white" x="27" y="31" width="650" height="115"/>
<path d="M129.639 133.96C129.639 136.52 128.959 138.56 127.599 140.08C126.239 141.6 124.399 142.36 122.079 142.36H96.5194C94.1994 142.36 92.3594 141.6 90.9994 140.08C89.6394 138.56 88.9594 136.52 88.9594 133.96V133.12H36.6394C34.3194 133.12 32.4794 132.36 31.1194 130.84C29.7594 129.32 29.0794 127.28 29.0794 124.72V120.76C29.0794 118.2 29.7594 116.16 31.1194 114.64C32.4794 113.12 34.3194 112.36 36.6394 112.36H58.2394V110.08H36.6394C34.3194 110.08 32.4794 109.32 31.1194 107.8C29.7594 106.28 29.0794 104.24 29.0794 101.68V97.6C29.0794 95.04 29.7594 93 31.1194 91.48C32.4794 89.96 34.3194 89.2 36.6394 89.2H122.319C124.639 89.2 126.479 89.96 127.839 91.48C129.199 93 129.879 95.04 129.879 97.6V101.68C129.879 104.24 129.199 106.28 127.839 107.8C126.479 109.32 124.639 110.08 122.319 110.08H100.479V112.36H122.079C124.399 112.36 126.239 113.12 127.599 114.64C128.959 116.16 129.639 118.2 129.639 120.76V133.96ZM129.759 78.64C129.759 81.2 129.079 83.24 127.719 84.76C126.359 86.28 124.519 87.04 122.199 87.04C117.879 86.96 113.599 86.76 109.359 86.44C105.199 86.04 101.239 85.48 97.4794 84.76C93.7994 83.96 90.3994 82.96 87.2794 81.76C84.1594 80.48 81.5194 78.88 79.3594 76.96C77.2794 78.96 74.6794 80.6 71.5594 81.88C68.5194 83.16 65.1194 84.16 61.3594 84.88C57.5994 85.6 53.5994 86.12 49.3594 86.44C45.1194 86.76 40.8794 86.96 36.6394 87.04C34.3194 87.04 32.4794 86.28 31.1194 84.76C29.7594 83.24 29.0794 81.2 29.0794 78.64V75.16C29.0794 72.6 29.7594 70.56 31.1194 69.04C32.4794 67.52 34.3194 66.72 36.6394 66.64C38.9594 66.56 41.2794 66.44 43.5994 66.28C45.9194 66.12 47.9994 65.88 49.8394 65.56C51.7594 65.24 53.3594 64.88 54.6394 64.48C55.9194 64 56.7594 63.44 57.1594 62.8H36.6394C34.3194 62.8 32.4794 62.04 31.1194 60.52C29.7594 59 29.0794 56.96 29.0794 54.4V49.48C29.0794 46.92 29.7594 44.88 31.1194 43.36C32.4794 41.84 34.3194 41.08 36.6394 41.08H53.5594C54.7594 41.08 55.7994 40.68 56.6794 39.88C57.5594 39 58.3994 38.08 59.1994 37.12C60.0794 36.16 60.9594 35.28 61.8394 34.48C62.7194 33.6 63.7594 33.16 64.9594 33.16H92.6794C93.8794 33.16 94.9194 33.6 95.7994 34.48C96.6794 35.28 97.5194 36.16 98.3194 37.12C99.1994 38.08 100.079 39 100.959 39.88C101.839 40.68 102.879 41.08 104.079 41.08H122.199C124.519 41.08 126.359 41.84 127.719 43.36C129.079 44.88 129.759 46.92 129.759 49.48V54.4C129.759 56.96 129.079 59 127.719 60.52C126.359 62.04 124.519 62.8 122.199 62.8H101.319C101.639 63.44 102.439 64 103.719 64.48C105.079 64.88 106.719 65.24 108.639 65.56C110.559 65.88 112.679 66.12 114.999 66.28C117.399 66.44 119.799 66.56 122.199 66.64C124.519 66.72 126.359 67.52 127.719 69.04C129.079 70.56 129.759 72.6 129.759 75.16V78.64ZM235.046 133.96C235.046 136.52 234.366 138.56 233.006 140.08C231.646 141.6 229.806 142.36 227.486 142.36H212.726C210.406 142.36 208.566 141.6 207.206 140.08C205.846 138.56 205.166 136.52 205.166 133.96V44.2C205.166 41.64 205.846 39.6 207.206 38.08C208.566 36.56 210.406 35.8 212.726 35.8H227.486C229.806 35.8 231.646 36.56 233.006 38.08C234.366 39.6 235.046 41.64 235.046 44.2V68.32C235.046 69.6 235.406 70.6 236.126 71.32C236.926 72.04 237.806 72.72 238.766 73.36C239.726 73.92 240.566 74.56 241.286 75.28C242.086 75.92 242.486 76.88 242.486 78.16V96.4C242.486 97.68 242.086 98.68 241.286 99.4C240.566 100.12 239.726 100.8 238.766 101.44C237.806 102 236.926 102.64 236.126 103.36C235.406 104 235.046 104.96 235.046 106.24V133.96ZM194.726 40C197.046 40 198.886 40.76 200.246 42.28C201.606 43.8 202.286 45.84 202.286 48.4V57.76C202.286 60.32 201.606 62.36 200.246 63.88C198.886 65.4 197.046 66.16 194.726 66.16H144.686C142.446 66.16 140.606 65.4 139.166 63.88C137.806 62.36 137.126 60.32 137.126 57.76V48.4C137.126 45.84 137.806 43.8 139.166 42.28C140.606 40.76 142.486 40 144.806 40H153.206C154.166 40 154.966 39.68 155.606 39.04C156.326 38.32 156.966 37.56 157.526 36.76C158.166 35.88 158.806 35.08 159.446 34.36C160.166 33.64 161.006 33.28 161.966 33.28H177.566C178.526 33.28 179.326 33.64 179.966 34.36C180.686 35.08 181.326 35.88 181.886 36.76C182.526 37.56 183.166 38.32 183.806 39.04C184.526 39.68 185.366 40 186.326 40H194.726ZM171.326 123.76C172.446 118.08 173.006 112.08 173.006 105.76C173.006 99.44 172.446 93.44 171.326 87.76H168.206C169.246 93.44 169.766 99.44 169.766 105.76C169.766 112.08 169.246 118.08 168.206 123.76H171.326ZM155.246 143.08C152.446 142.84 149.966 142.16 147.806 141.04C145.646 140 143.806 138.68 142.286 137.08C140.766 135.56 139.566 133.8 138.686 131.8C137.886 129.88 137.366 127.88 137.126 125.8C136.886 123.4 136.686 120.44 136.526 116.92C136.446 113.32 136.406 109.64 136.406 105.88C136.406 102.04 136.446 98.36 136.526 94.84C136.686 91.24 136.886 88.24 137.126 85.84C137.366 83.68 137.886 81.6 138.686 79.6C139.566 77.6 140.766 75.84 142.286 74.32C143.806 72.72 145.646 71.4 147.806 70.36C149.966 69.32 152.446 68.68 155.246 68.44C160.046 68.04 164.646 67.84 169.046 67.84C173.446 67.76 178.046 67.96 182.846 68.44C185.646 68.68 188.166 69.32 190.406 70.36C192.726 71.4 194.726 72.72 196.406 74.32C198.086 75.84 199.406 77.6 200.366 79.6C201.326 81.6 201.926 83.68 202.166 85.84C202.406 88.24 202.566 91.24 202.646 94.84C202.806 98.36 202.886 102.04 202.886 105.88C202.886 109.64 202.806 113.32 202.646 116.92C202.566 120.44 202.406 123.4 202.166 125.8C201.926 127.88 201.326 129.88 200.366 131.8C199.406 133.8 198.086 135.56 196.406 137.08C194.726 138.68 192.726 140 190.406 141.04C188.166 142.08 185.646 142.76 182.846 143.08C178.046 143.64 173.446 143.88 169.046 143.8C164.646 143.8 160.046 143.56 155.246 143.08ZM345.733 133.96C345.733 136.52 345.053 138.56 343.693 140.08C342.333 141.6 340.493 142.36 338.173 142.36H252.733C250.413 142.36 248.573 141.6 247.213 140.08C245.853 138.56 245.173 136.52 245.173 133.96V119.32C245.173 116.76 245.853 114.72 247.213 113.2C248.573 111.68 250.413 110.92 252.733 110.92H338.173C340.493 110.92 342.333 111.68 343.693 113.2C345.053 114.72 345.733 116.76 345.733 119.32V133.96ZM345.733 97.48C345.733 100.04 345.053 102.08 343.693 103.6C342.333 105.12 340.493 105.88 338.173 105.88H252.733C250.413 105.88 248.573 105.12 247.213 103.6C245.853 102.08 245.173 100.04 245.173 97.48V44.2C245.173 41.64 245.853 39.6 247.213 38.08C248.573 36.56 250.413 35.8 252.733 35.8H338.173C340.493 35.8 342.333 36.56 343.693 38.08C345.053 39.6 345.733 41.64 345.733 44.2V59.44C345.733 62 345.053 64.12 343.693 65.8C342.333 67.48 340.533 68.4 338.293 68.56C333.413 68.96 328.653 69.28 324.013 69.52C319.373 69.68 314.733 69.72 310.093 69.64C305.453 69.56 300.773 69.4 296.053 69.16C291.333 68.84 286.453 68.4 281.413 67.84V73.84C286.453 74.4 291.333 74.84 296.053 75.16C300.773 75.4 305.453 75.56 310.093 75.64C314.733 75.72 319.373 75.68 324.013 75.52C328.653 75.28 333.413 74.96 338.293 74.56C340.533 74.4 342.333 75 343.693 76.36C345.053 77.72 345.733 79.68 345.733 82.24V97.48ZM453.78 85.6C453.78 88.16 453.1 90.2 451.74 91.72C450.38 93.24 448.54 94 446.22 94H426.66C424.34 94 422.5 93.24 421.14 91.72C419.78 90.2 419.1 88.16 419.1 85.6V44.2C419.1 41.64 419.78 39.6 421.14 38.08C422.5 36.56 424.34 35.8 426.66 35.8H446.22C448.54 35.8 450.38 36.56 451.74 38.08C453.1 39.6 453.78 41.64 453.78 44.2V85.6ZM422.34 120.04C409.78 122.44 397.22 122.44 384.66 120.04V122.92C397.22 125.32 409.78 125.32 422.34 122.92V120.04ZM453.78 133.96C453.78 136.52 453.1 138.56 451.74 140.08C450.38 141.6 448.54 142.36 446.22 142.36H360.78C358.46 142.36 356.62 141.6 355.26 140.08C353.9 138.56 353.22 136.52 353.22 133.96V104.8C353.22 102.24 353.9 100.2 355.26 98.68C356.62 97.16 358.46 96.4 360.78 96.4H379.98C380.78 96.4 381.54 96.68 382.26 97.24C382.98 97.72 383.66 98.28 384.3 98.92C384.94 99.48 385.62 100 386.34 100.48C387.06 100.96 387.82 101.2 388.62 101.2H418.5C419.3 101.2 420.06 100.96 420.78 100.48C421.5 100 422.18 99.48 422.82 98.92C423.46 98.28 424.14 97.72 424.86 97.24C425.58 96.68 426.34 96.4 427.14 96.4H446.22C448.54 96.4 450.38 97.16 451.74 98.68C453.1 100.2 453.78 102.24 453.78 104.8V133.96ZM415.5 85.6C415.5 88.16 414.82 90.2 413.46 91.72C412.1 93.24 410.26 94 407.94 94H360.78C358.46 94 356.62 93.24 355.26 91.72C353.9 90.2 353.22 88.16 353.22 85.6V65.68C353.22 63.12 353.9 61 355.26 59.32C356.62 57.64 358.42 56.72 360.66 56.56C364.18 56.4 367.62 56.4 370.98 56.56C374.34 56.64 377.82 56.88 381.42 57.28V54.4C377.82 54 374.34 53.76 370.98 53.68C367.62 53.52 364.18 53.52 360.66 53.68C358.34 53.84 356.5 53.24 355.14 51.88C353.86 50.44 353.22 48.48 353.22 46V44.2C353.22 41.64 353.9 39.6 355.26 38.08C356.62 36.56 358.46 35.8 360.78 35.8H407.94C410.26 35.8 412.1 36.56 413.46 38.08C414.82 39.6 415.5 41.64 415.5 44.2V64C415.5 66.56 414.78 68.68 413.34 70.36C411.98 72.04 410.18 72.96 407.94 73.12C401.3 73.44 394.38 73.2 387.18 72.4V75.28C394.38 76.08 401.3 76.32 407.94 76C410.26 75.84 412.1 76.48 413.46 77.92C414.82 79.28 415.5 81.2 415.5 83.68V85.6ZM561.827 133.96C561.827 136.52 561.147 138.56 559.787 140.08C558.427 141.6 556.587 142.36 554.267 142.36H530.387C528.067 142.36 526.227 141.6 524.867 140.08C523.507 138.56 522.827 136.52 522.827 133.96V44.2C522.827 41.64 523.507 39.6 524.867 38.08C526.227 36.56 528.067 35.8 530.387 35.8H554.267C556.587 35.8 558.427 36.56 559.787 38.08C561.147 39.6 561.827 41.64 561.827 44.2V133.96ZM519.707 133.96C519.707 136.52 519.027 138.56 517.667 140.08C516.307 141.6 514.467 142.36 512.147 142.36H468.827C466.507 142.36 464.667 141.6 463.307 140.08C461.947 138.56 461.267 136.52 461.267 133.96V44.2C461.267 41.64 461.947 39.6 463.307 38.08C464.667 36.56 466.507 35.8 468.827 35.8H492.707C495.027 35.8 496.867 36.56 498.227 38.08C499.587 39.6 500.267 41.64 500.267 44.2V108.52H512.147C514.467 108.52 516.307 109.28 517.667 110.8C519.027 112.32 519.707 114.36 519.707 116.92V133.96ZM628.834 133.96C628.834 136.52 628.154 138.56 626.794 140.08C625.434 141.6 623.594 142.36 621.274 142.36H576.874C574.554 142.36 572.714 141.6 571.354 140.08C569.994 138.56 569.314 136.52 569.314 133.96V44.2C569.314 41.64 569.994 39.6 571.354 38.08C572.714 36.56 574.554 35.8 576.874 35.8H621.274C623.594 35.8 625.434 36.56 626.794 38.08C628.154 39.6 628.834 41.64 628.834 44.2V58.84C628.834 61.4 628.154 63.44 626.794 64.96C625.434 66.48 623.594 67.24 621.274 67.24H605.074V110.92H621.274C623.594 110.92 625.434 111.68 626.794 113.2C628.154 114.72 628.834 116.76 628.834 119.32V133.96ZM667.234 133.96C667.234 136.52 666.554 138.56 665.194 140.08C663.834 141.6 661.994 142.36 659.674 142.36H639.514C637.194 142.36 635.354 141.6 633.994 140.08C632.634 138.56 631.954 136.52 631.954 133.96V44.2C631.954 41.64 632.634 39.6 633.994 38.08C635.354 36.56 637.194 35.8 639.514 35.8H659.674C661.994 35.8 663.834 36.56 665.194 38.08C666.554 39.6 667.234 41.64 667.234 44.2V68.32C667.234 69.6 667.594 70.6 668.314 71.32C669.114 72.04 669.994 72.72 670.954 73.36C671.914 73.92 672.754 74.56 673.474 75.28C674.274 75.92 674.674 76.88 674.674 78.16V96.4C674.674 97.68 674.274 98.68 673.474 99.4C672.754 100.12 671.914 100.8 670.954 101.44C669.994 102 669.114 102.64 668.314 103.36C667.594 104 667.234 104.96 667.234 106.24V133.96Z"/>
</mask>
<path d="M129.639 133.96C129.639 136.52 128.959 138.56 127.599 140.08C126.239 141.6 124.399 142.36 122.079 142.36H96.5194C94.1994 142.36 92.3594 141.6 90.9994 140.08C89.6394 138.56 88.9594 136.52 88.9594 133.96V133.12H36.6394C34.3194 133.12 32.4794 132.36 31.1194 130.84C29.7594 129.32 29.0794 127.28 29.0794 124.72V120.76C29.0794 118.2 29.7594 116.16 31.1194 114.64C32.4794 113.12 34.3194 112.36 36.6394 112.36H58.2394V110.08H36.6394C34.3194 110.08 32.4794 109.32 31.1194 107.8C29.7594 106.28 29.0794 104.24 29.0794 101.68V97.6C29.0794 95.04 29.7594 93 31.1194 91.48C32.4794 89.96 34.3194 89.2 36.6394 89.2H122.319C124.639 89.2 126.479 89.96 127.839 91.48C129.199 93 129.879 95.04 129.879 97.6V101.68C129.879 104.24 129.199 106.28 127.839 107.8C126.479 109.32 124.639 110.08 122.319 110.08H100.479V112.36H122.079C124.399 112.36 126.239 113.12 127.599 114.64C128.959 116.16 129.639 118.2 129.639 120.76V133.96ZM129.759 78.64C129.759 81.2 129.079 83.24 127.719 84.76C126.359 86.28 124.519 87.04 122.199 87.04C117.879 86.96 113.599 86.76 109.359 86.44C105.199 86.04 101.239 85.48 97.4794 84.76C93.7994 83.96 90.3994 82.96 87.2794 81.76C84.1594 80.48 81.5194 78.88 79.3594 76.96C77.2794 78.96 74.6794 80.6 71.5594 81.88C68.5194 83.16 65.1194 84.16 61.3594 84.88C57.5994 85.6 53.5994 86.12 49.3594 86.44C45.1194 86.76 40.8794 86.96 36.6394 87.04C34.3194 87.04 32.4794 86.28 31.1194 84.76C29.7594 83.24 29.0794 81.2 29.0794 78.64V75.16C29.0794 72.6 29.7594 70.56 31.1194 69.04C32.4794 67.52 34.3194 66.72 36.6394 66.64C38.9594 66.56 41.2794 66.44 43.5994 66.28C45.9194 66.12 47.9994 65.88 49.8394 65.56C51.7594 65.24 53.3594 64.88 54.6394 64.48C55.9194 64 56.7594 63.44 57.1594 62.8H36.6394C34.3194 62.8 32.4794 62.04 31.1194 60.52C29.7594 59 29.0794 56.96 29.0794 54.4V49.48C29.0794 46.92 29.7594 44.88 31.1194 43.36C32.4794 41.84 34.3194 41.08 36.6394 41.08H53.5594C54.7594 41.08 55.7994 40.68 56.6794 39.88C57.5594 39 58.3994 38.08 59.1994 37.12C60.0794 36.16 60.9594 35.28 61.8394 34.48C62.7194 33.6 63.7594 33.16 64.9594 33.16H92.6794C93.8794 33.16 94.9194 33.6 95.7994 34.48C96.6794 35.28 97.5194 36.16 98.3194 37.12C99.1994 38.08 100.079 39 100.959 39.88C101.839 40.68 102.879 41.08 104.079 41.08H122.199C124.519 41.08 126.359 41.84 127.719 43.36C129.079 44.88 129.759 46.92 129.759 49.48V54.4C129.759 56.96 129.079 59 127.719 60.52C126.359 62.04 124.519 62.8 122.199 62.8H101.319C101.639 63.44 102.439 64 103.719 64.48C105.079 64.88 106.719 65.24 108.639 65.56C110.559 65.88 112.679 66.12 114.999 66.28C117.399 66.44 119.799 66.56 122.199 66.64C124.519 66.72 126.359 67.52 127.719 69.04C129.079 70.56 129.759 72.6 129.759 75.16V78.64ZM235.046 133.96C235.046 136.52 234.366 138.56 233.006 140.08C231.646 141.6 229.806 142.36 227.486 142.36H212.726C210.406 142.36 208.566 141.6 207.206 140.08C205.846 138.56 205.166 136.52 205.166 133.96V44.2C205.166 41.64 205.846 39.6 207.206 38.08C208.566 36.56 210.406 35.8 212.726 35.8H227.486C229.806 35.8 231.646 36.56 233.006 38.08C234.366 39.6 235.046 41.64 235.046 44.2V68.32C235.046 69.6 235.406 70.6 236.126 71.32C236.926 72.04 237.806 72.72 238.766 73.36C239.726 73.92 240.566 74.56 241.286 75.28C242.086 75.92 242.486 76.88 242.486 78.16V96.4C242.486 97.68 242.086 98.68 241.286 99.4C240.566 100.12 239.726 100.8 238.766 101.44C237.806 102 236.926 102.64 236.126 103.36C235.406 104 235.046 104.96 235.046 106.24V133.96ZM194.726 40C197.046 40 198.886 40.76 200.246 42.28C201.606 43.8 202.286 45.84 202.286 48.4V57.76C202.286 60.32 201.606 62.36 200.246 63.88C198.886 65.4 197.046 66.16 194.726 66.16H144.686C142.446 66.16 140.606 65.4 139.166 63.88C137.806 62.36 137.126 60.32 137.126 57.76V48.4C137.126 45.84 137.806 43.8 139.166 42.28C140.606 40.76 142.486 40 144.806 40H153.206C154.166 40 154.966 39.68 155.606 39.04C156.326 38.32 156.966 37.56 157.526 36.76C158.166 35.88 158.806 35.08 159.446 34.36C160.166 33.64 161.006 33.28 161.966 33.28H177.566C178.526 33.28 179.326 33.64 179.966 34.36C180.686 35.08 181.326 35.88 181.886 36.76C182.526 37.56 183.166 38.32 183.806 39.04C184.526 39.68 185.366 40 186.326 40H194.726ZM171.326 123.76C172.446 118.08 173.006 112.08 173.006 105.76C173.006 99.44 172.446 93.44 171.326 87.76H168.206C169.246 93.44 169.766 99.44 169.766 105.76C169.766 112.08 169.246 118.08 168.206 123.76H171.326ZM155.246 143.08C152.446 142.84 149.966 142.16 147.806 141.04C145.646 140 143.806 138.68 142.286 137.08C140.766 135.56 139.566 133.8 138.686 131.8C137.886 129.88 137.366 127.88 137.126 125.8C136.886 123.4 136.686 120.44 136.526 116.92C136.446 113.32 136.406 109.64 136.406 105.88C136.406 102.04 136.446 98.36 136.526 94.84C136.686 91.24 136.886 88.24 137.126 85.84C137.366 83.68 137.886 81.6 138.686 79.6C139.566 77.6 140.766 75.84 142.286 74.32C143.806 72.72 145.646 71.4 147.806 70.36C149.966 69.32 152.446 68.68 155.246 68.44C160.046 68.04 164.646 67.84 169.046 67.84C173.446 67.76 178.046 67.96 182.846 68.44C185.646 68.68 188.166 69.32 190.406 70.36C192.726 71.4 194.726 72.72 196.406 74.32C198.086 75.84 199.406 77.6 200.366 79.6C201.326 81.6 201.926 83.68 202.166 85.84C202.406 88.24 202.566 91.24 202.646 94.84C202.806 98.36 202.886 102.04 202.886 105.88C202.886 109.64 202.806 113.32 202.646 116.92C202.566 120.44 202.406 123.4 202.166 125.8C201.926 127.88 201.326 129.88 200.366 131.8C199.406 133.8 198.086 135.56 196.406 137.08C194.726 138.68 192.726 140 190.406 141.04C188.166 142.08 185.646 142.76 182.846 143.08C178.046 143.64 173.446 143.88 169.046 143.8C164.646 143.8 160.046 143.56 155.246 143.08ZM345.733 133.96C345.733 136.52 345.053 138.56 343.693 140.08C342.333 141.6 340.493 142.36 338.173 142.36H252.733C250.413 142.36 248.573 141.6 247.213 140.08C245.853 138.56 245.173 136.52 245.173 133.96V119.32C245.173 116.76 245.853 114.72 247.213 113.2C248.573 111.68 250.413 110.92 252.733 110.92H338.173C340.493 110.92 342.333 111.68 343.693 113.2C345.053 114.72 345.733 116.76 345.733 119.32V133.96ZM345.733 97.48C345.733 100.04 345.053 102.08 343.693 103.6C342.333 105.12 340.493 105.88 338.173 105.88H252.733C250.413 105.88 248.573 105.12 247.213 103.6C245.853 102.08 245.173 100.04 245.173 97.48V44.2C245.173 41.64 245.853 39.6 247.213 38.08C248.573 36.56 250.413 35.8 252.733 35.8H338.173C340.493 35.8 342.333 36.56 343.693 38.08C345.053 39.6 345.733 41.64 345.733 44.2V59.44C345.733 62 345.053 64.12 343.693 65.8C342.333 67.48 340.533 68.4 338.293 68.56C333.413 68.96 328.653 69.28 324.013 69.52C319.373 69.68 314.733 69.72 310.093 69.64C305.453 69.56 300.773 69.4 296.053 69.16C291.333 68.84 286.453 68.4 281.413 67.84V73.84C286.453 74.4 291.333 74.84 296.053 75.16C300.773 75.4 305.453 75.56 310.093 75.64C314.733 75.72 319.373 75.68 324.013 75.52C328.653 75.28 333.413 74.96 338.293 74.56C340.533 74.4 342.333 75 343.693 76.36C345.053 77.72 345.733 79.68 345.733 82.24V97.48ZM453.78 85.6C453.78 88.16 453.1 90.2 451.74 91.72C450.38 93.24 448.54 94 446.22 94H426.66C424.34 94 422.5 93.24 421.14 91.72C419.78 90.2 419.1 88.16 419.1 85.6V44.2C419.1 41.64 419.78 39.6 421.14 38.08C422.5 36.56 424.34 35.8 426.66 35.8H446.22C448.54 35.8 450.38 36.56 451.74 38.08C453.1 39.6 453.78 41.64 453.78 44.2V85.6ZM422.34 120.04C409.78 122.44 397.22 122.44 384.66 120.04V122.92C397.22 125.32 409.78 125.32 422.34 122.92V120.04ZM453.78 133.96C453.78 136.52 453.1 138.56 451.74 140.08C450.38 141.6 448.54 142.36 446.22 142.36H360.78C358.46 142.36 356.62 141.6 355.26 140.08C353.9 138.56 353.22 136.52 353.22 133.96V104.8C353.22 102.24 353.9 100.2 355.26 98.68C356.62 97.16 358.46 96.4 360.78 96.4H379.98C380.78 96.4 381.54 96.68 382.26 97.24C382.98 97.72 383.66 98.28 384.3 98.92C384.94 99.48 385.62 100 386.34 100.48C387.06 100.96 387.82 101.2 388.62 101.2H418.5C419.3 101.2 420.06 100.96 420.78 100.48C421.5 100 422.18 99.48 422.82 98.92C423.46 98.28 424.14 97.72 424.86 97.24C425.58 96.68 426.34 96.4 427.14 96.4H446.22C448.54 96.4 450.38 97.16 451.74 98.68C453.1 100.2 453.78 102.24 453.78 104.8V133.96ZM415.5 85.6C415.5 88.16 414.82 90.2 413.46 91.72C412.1 93.24 410.26 94 407.94 94H360.78C358.46 94 356.62 93.24 355.26 91.72C353.9 90.2 353.22 88.16 353.22 85.6V65.68C353.22 63.12 353.9 61 355.26 59.32C356.62 57.64 358.42 56.72 360.66 56.56C364.18 56.4 367.62 56.4 370.98 56.56C374.34 56.64 377.82 56.88 381.42 57.28V54.4C377.82 54 374.34 53.76 370.98 53.68C367.62 53.52 364.18 53.52 360.66 53.68C358.34 53.84 356.5 53.24 355.14 51.88C353.86 50.44 353.22 48.48 353.22 46V44.2C353.22 41.64 353.9 39.6 355.26 38.08C356.62 36.56 358.46 35.8 360.78 35.8H407.94C410.26 35.8 412.1 36.56 413.46 38.08C414.82 39.6 415.5 41.64 415.5 44.2V64C415.5 66.56 414.78 68.68 413.34 70.36C411.98 72.04 410.18 72.96 407.94 73.12C401.3 73.44 394.38 73.2 387.18 72.4V75.28C394.38 76.08 401.3 76.32 407.94 76C410.26 75.84 412.1 76.48 413.46 77.92C414.82 79.28 415.5 81.2 415.5 83.68V85.6ZM561.827 133.96C561.827 136.52 561.147 138.56 559.787 140.08C558.427 141.6 556.587 142.36 554.267 142.36H530.387C528.067 142.36 526.227 141.6 524.867 140.08C523.507 138.56 522.827 136.52 522.827 133.96V44.2C522.827 41.64 523.507 39.6 524.867 38.08C526.227 36.56 528.067 35.8 530.387 35.8H554.267C556.587 35.8 558.427 36.56 559.787 38.08C561.147 39.6 561.827 41.64 561.827 44.2V133.96ZM519.707 133.96C519.707 136.52 519.027 138.56 517.667 140.08C516.307 141.6 514.467 142.36 512.147 142.36H468.827C466.507 142.36 464.667 141.6 463.307 140.08C461.947 138.56 461.267 136.52 461.267 133.96V44.2C461.267 41.64 461.947 39.6 463.307 38.08C464.667 36.56 466.507 35.8 468.827 35.8H492.707C495.027 35.8 496.867 36.56 498.227 38.08C499.587 39.6 500.267 41.64 500.267 44.2V108.52H512.147C514.467 108.52 516.307 109.28 517.667 110.8C519.027 112.32 519.707 114.36 519.707 116.92V133.96ZM628.834 133.96C628.834 136.52 628.154 138.56 626.794 140.08C625.434 141.6 623.594 142.36 621.274 142.36H576.874C574.554 142.36 572.714 141.6 571.354 140.08C569.994 138.56 569.314 136.52 569.314 133.96V44.2C569.314 41.64 569.994 39.6 571.354 38.08C572.714 36.56 574.554 35.8 576.874 35.8H621.274C623.594 35.8 625.434 36.56 626.794 38.08C628.154 39.6 628.834 41.64 628.834 44.2V58.84C628.834 61.4 628.154 63.44 626.794 64.96C625.434 66.48 623.594 67.24 621.274 67.24H605.074V110.92H621.274C623.594 110.92 625.434 111.68 626.794 113.2C628.154 114.72 628.834 116.76 628.834 119.32V133.96ZM667.234 133.96C667.234 136.52 666.554 138.56 665.194 140.08C663.834 141.6 661.994 142.36 659.674 142.36H639.514C637.194 142.36 635.354 141.6 633.994 140.08C632.634 138.56 631.954 136.52 631.954 133.96V44.2C631.954 41.64 632.634 39.6 633.994 38.08C635.354 36.56 637.194 35.8 639.514 35.8H659.674C661.994 35.8 663.834 36.56 665.194 38.08C666.554 39.6 667.234 41.64 667.234 44.2V68.32C667.234 69.6 667.594 70.6 668.314 71.32C669.114 72.04 669.994 72.72 670.954 73.36C671.914 73.92 672.754 74.56 673.474 75.28C674.274 75.92 674.674 76.88 674.674 78.16V96.4C674.674 97.68 674.274 98.68 673.474 99.4C672.754 100.12 671.914 100.8 670.954 101.44C669.994 102 669.114 102.64 668.314 103.36C667.594 104 667.234 104.96 667.234 106.24V133.96Z" fill="url(#paint0_linear_882_1990)"/>
<path d="M127.599 140.08L129.09 141.414L129.09 141.414L127.599 140.08ZM90.9994 140.08L92.4899 138.746L92.4899 138.746L90.9994 140.08ZM88.9594 133.12H90.9594V131.12H88.9594V133.12ZM31.1194 130.84L29.6289 132.174L29.6289 132.174L31.1194 130.84ZM31.1194 114.64L29.6289 113.306L29.6289 113.306L31.1194 114.64ZM58.2394 112.36V114.36H60.2394V112.36H58.2394ZM58.2394 110.08H60.2394V108.08H58.2394V110.08ZM31.1194 107.8L32.6099 106.466L32.6099 106.466L31.1194 107.8ZM31.1194 91.48L32.6099 92.8136L32.6099 92.8136L31.1194 91.48ZM127.839 91.48L126.349 92.8136L126.349 92.8136L127.839 91.48ZM127.839 107.8L126.349 106.466L126.349 106.466L127.839 107.8ZM100.479 110.08V108.08H98.4794V110.08H100.479ZM100.479 112.36H98.4794V114.36H100.479V112.36ZM127.599 114.64L129.09 113.306L129.09 113.306L127.599 114.64ZM127.719 84.76L126.229 83.4264L126.229 83.4264L127.719 84.76ZM122.199 87.04L122.162 89.0397L122.181 89.04H122.199V87.04ZM109.359 86.44L109.168 88.4308L109.188 88.4328L109.209 88.4343L109.359 86.44ZM97.4794 84.76L97.0545 86.7143L97.0788 86.7196L97.1032 86.7243L97.4794 84.76ZM87.2794 81.76L86.5203 83.6103L86.5408 83.6187L86.5614 83.6267L87.2794 81.76ZM79.3594 76.96L80.6881 75.4652L79.3061 74.2367L77.9732 75.5183L79.3594 76.96ZM71.5594 81.88L70.8003 80.0297L70.7917 80.0332L70.7833 80.0367L71.5594 81.88ZM49.3594 86.44L49.2089 84.4457L49.2089 84.4457L49.3594 86.44ZM36.6394 87.04V89.04H36.6582L36.6771 89.0396L36.6394 87.04ZM31.1194 84.76L32.6099 83.4264L32.6099 83.4264L31.1194 84.76ZM31.1194 69.04L32.6099 70.3736L32.6099 70.3736L31.1194 69.04ZM43.5994 66.28L43.4618 64.2847L43.4618 64.2847L43.5994 66.28ZM49.8394 65.56L49.5106 63.5872L49.4967 63.5896L49.8394 65.56ZM54.6394 64.48L55.2359 66.389L55.2893 66.3723L55.3416 66.3527L54.6394 64.48ZM57.1594 62.8L58.8554 63.86L60.7679 60.8H57.1594V62.8ZM31.1194 60.52L29.6289 61.8536L29.6289 61.8536L31.1194 60.52ZM31.1194 43.36L29.6289 42.0264L29.6289 42.0264L31.1194 43.36ZM56.6794 39.88L58.0247 41.3599L58.0599 41.3279L58.0936 41.2942L56.6794 39.88ZM59.1994 37.12L57.7251 35.7686L57.6932 35.8034L57.6629 35.8396L59.1994 37.12ZM61.8394 34.48L63.1847 35.9599L63.2199 35.9279L63.2536 35.8942L61.8394 34.48ZM95.7994 34.48L94.3852 35.8942L94.4188 35.9279L94.454 35.9599L95.7994 34.48ZM98.3194 37.12L96.7829 38.4004L96.8132 38.4366L96.8451 38.4714L98.3194 37.12ZM100.959 39.88L99.5452 41.2942L99.5788 41.3279L99.614 41.3599L100.959 39.88ZM101.319 62.8V60.8H98.0833L99.5305 63.6944L101.319 62.8ZM103.719 64.48L103.017 66.3527L103.085 66.3782L103.155 66.3987L103.719 64.48ZM108.639 65.56L108.311 67.5328L108.311 67.5328L108.639 65.56ZM114.999 66.28L114.862 68.2753L114.866 68.2756L114.999 66.28ZM122.199 66.64L122.268 64.6412L122.266 64.6411L122.199 66.64ZM127.719 69.04L126.229 70.3736L126.229 70.3736L127.719 69.04ZM127.639 133.96C127.639 136.158 127.063 137.68 126.109 138.746L129.09 141.414C130.856 139.44 131.639 136.882 131.639 133.96H127.639ZM126.109 138.746C125.182 139.782 123.917 140.36 122.079 140.36V144.36C124.882 144.36 127.296 143.418 129.09 141.414L126.109 138.746ZM122.079 140.36H96.5194V144.36H122.079V140.36ZM96.5194 140.36C94.6817 140.36 93.4163 139.782 92.4899 138.746L89.5089 141.414C91.3025 143.418 93.717 144.36 96.5194 144.36V140.36ZM92.4899 138.746C91.5355 137.68 90.9594 136.158 90.9594 133.96H86.9594C86.9594 136.882 87.7432 139.44 89.5089 141.414L92.4899 138.746ZM90.9594 133.96V133.12H86.9594V133.96H90.9594ZM88.9594 131.12H36.6394V135.12H88.9594V131.12ZM36.6394 131.12C34.8017 131.12 33.5363 130.542 32.6099 129.506L29.6289 132.174C31.4225 134.178 33.837 135.12 36.6394 135.12V131.12ZM32.6099 129.506C31.6555 128.44 31.0794 126.918 31.0794 124.72H27.0794C27.0794 127.642 27.8632 130.2 29.6289 132.174L32.6099 129.506ZM31.0794 124.72V120.76H27.0794V124.72H31.0794ZM31.0794 120.76C31.0794 118.562 31.6555 117.04 32.6099 115.974L29.6289 113.306C27.8632 115.28 27.0794 117.838 27.0794 120.76H31.0794ZM32.6099 115.974C33.5363 114.938 34.8017 114.36 36.6394 114.36V110.36C33.837 110.36 31.4225 111.302 29.6289 113.306L32.6099 115.974ZM36.6394 114.36H58.2394V110.36H36.6394V114.36ZM60.2394 112.36V110.08H56.2394V112.36H60.2394ZM58.2394 108.08H36.6394V112.08H58.2394V108.08ZM36.6394 108.08C34.8017 108.08 33.5363 107.502 32.6099 106.466L29.6289 109.134C31.4225 111.138 33.837 112.08 36.6394 112.08V108.08ZM32.6099 106.466C31.6555 105.4 31.0794 103.878 31.0794 101.68H27.0794C27.0794 104.602 27.8632 107.16 29.6289 109.134L32.6099 106.466ZM31.0794 101.68V97.6H27.0794V101.68H31.0794ZM31.0794 97.6C31.0794 95.4018 31.6555 93.8802 32.6099 92.8136L29.6289 90.1464C27.8632 92.1198 27.0794 94.6782 27.0794 97.6H31.0794ZM32.6099 92.8136C33.5363 91.7782 34.8017 91.2 36.6394 91.2V87.2C33.837 87.2 31.4225 88.1418 29.6289 90.1464L32.6099 92.8136ZM36.6394 91.2H122.319V87.2H36.6394V91.2ZM122.319 91.2C124.157 91.2 125.422 91.7782 126.349 92.8136L129.33 90.1464C127.536 88.1418 125.122 87.2 122.319 87.2V91.2ZM126.349 92.8136C127.303 93.8802 127.879 95.4018 127.879 97.6H131.879C131.879 94.6782 131.096 92.1198 129.33 90.1464L126.349 92.8136ZM127.879 97.6V101.68H131.879V97.6H127.879ZM127.879 101.68C127.879 103.878 127.303 105.4 126.349 106.466L129.33 109.134C131.096 107.16 131.879 104.602 131.879 101.68H127.879ZM126.349 106.466C125.422 107.502 124.157 108.08 122.319 108.08V112.08C125.122 112.08 127.536 111.138 129.33 109.134L126.349 106.466ZM122.319 108.08H100.479V112.08H122.319V108.08ZM98.4794 110.08V112.36H102.479V110.08H98.4794ZM100.479 114.36H122.079V110.36H100.479V114.36ZM122.079 114.36C123.917 114.36 125.182 114.938 126.109 115.974L129.09 113.306C127.296 111.302 124.882 110.36 122.079 110.36V114.36ZM126.109 115.974C127.063 117.04 127.639 118.562 127.639 120.76H131.639C131.639 117.838 130.856 115.28 129.09 113.306L126.109 115.974ZM127.639 120.76V133.96H131.639V120.76H127.639ZM127.759 78.64C127.759 80.8382 127.183 82.3598 126.229 83.4264L129.21 86.0936C130.976 84.1202 131.759 81.5618 131.759 78.64H127.759ZM126.229 83.4264C125.302 84.4618 124.037 85.04 122.199 85.04V89.04C125.002 89.04 127.416 88.0982 129.21 86.0936L126.229 83.4264ZM122.236 85.0403C117.954 84.961 113.712 84.7628 109.51 84.4457L109.209 88.4343C113.487 88.7572 117.805 88.959 122.162 89.0397L122.236 85.0403ZM109.551 84.4492C105.447 84.0546 101.549 83.503 97.8555 82.7957L97.1032 86.7243C100.93 87.457 104.952 88.0254 109.168 88.4308L109.551 84.4492ZM97.9042 82.8056C94.3117 82.0247 91.011 81.0524 87.9973 79.8933L86.5614 83.6267C89.7878 84.8676 93.287 85.8953 97.0545 86.7143L97.9042 82.8056ZM88.0385 79.9097C85.093 78.7012 82.6541 77.2128 80.6881 75.4652L78.0306 78.4548C80.3846 80.5472 83.2258 82.2588 86.5203 83.6103L88.0385 79.9097ZM77.9732 75.5183C76.1025 77.3171 73.726 78.8293 70.8003 80.0297L72.3185 83.7303C75.6327 82.3707 78.4563 80.6029 80.7456 78.4017L77.9732 75.5183ZM70.7833 80.0367C67.8906 81.2547 64.6274 82.2179 60.9832 82.9157L61.7355 86.8443C65.6114 86.1021 69.1482 85.0653 72.3355 83.7233L70.7833 80.0367ZM60.9832 82.9157C57.3054 83.6199 53.3813 84.1308 49.2089 84.4457L49.5099 88.4343C53.8174 88.1092 57.8933 87.5801 61.7355 86.8443L60.9832 82.9157ZM49.2089 84.4457C45.0063 84.7628 40.8039 84.9611 36.6016 85.0404L36.6771 89.0396C40.9548 88.9589 45.2325 88.7572 49.5099 88.4343L49.2089 84.4457ZM36.6394 85.04C34.8017 85.04 33.5363 84.4618 32.6099 83.4264L29.6289 86.0936C31.4225 88.0982 33.837 89.04 36.6394 89.04V85.04ZM32.6099 83.4264C31.6555 82.3598 31.0794 80.8382 31.0794 78.64H27.0794C27.0794 81.5618 27.8632 84.1202 29.6289 86.0936L32.6099 83.4264ZM31.0794 78.64V75.16H27.0794V78.64H31.0794ZM31.0794 75.16C31.0794 72.9618 31.6555 71.4402 32.6099 70.3736L29.6289 67.7064C27.8632 69.6798 27.0794 72.2382 27.0794 75.16H31.0794ZM32.6099 70.3736C33.5549 69.3174 34.8506 68.7029 36.7083 68.6388L36.5705 64.6412C33.7882 64.7371 31.4039 65.7226 29.6289 67.7064L32.6099 70.3736ZM36.7083 68.6388C39.0513 68.558 41.3942 68.4368 43.737 68.2753L43.4618 64.2847C41.1646 64.4432 38.8675 64.562 36.5705 64.6412L36.7083 68.6388ZM43.737 68.2753C46.1099 68.1116 48.2601 67.8647 50.1821 67.5304L49.4967 63.5896C47.7386 63.8953 45.7289 64.1284 43.4618 64.2847L43.737 68.2753ZM50.1682 67.5328C52.1422 67.2038 53.8388 66.8256 55.2359 66.389L54.0428 62.571C52.8799 62.9344 51.3765 63.2762 49.5106 63.5872L50.1682 67.5328ZM55.3416 66.3527C56.7396 65.8284 58.0981 65.0716 58.8554 63.86L55.4634 61.74C55.4207 61.8083 55.0991 62.1716 53.9371 62.6073L55.3416 66.3527ZM57.1594 60.8H36.6394V64.8H57.1594V60.8ZM36.6394 60.8C34.8017 60.8 33.5363 60.2218 32.6099 59.1864L29.6289 61.8536C31.4225 63.8582 33.837 64.8 36.6394 64.8V60.8ZM32.6099 59.1864C31.6555 58.1198 31.0794 56.5982 31.0794 54.4H27.0794C27.0794 57.3218 27.8632 59.8802 29.6289 61.8536L32.6099 59.1864ZM31.0794 54.4V49.48H27.0794V54.4H31.0794ZM31.0794 49.48C31.0794 47.2818 31.6555 45.7602 32.6099 44.6936L29.6289 42.0264C27.8632 43.9998 27.0794 46.5582 27.0794 49.48H31.0794ZM32.6099 44.6936C33.5363 43.6582 34.8017 43.08 36.6394 43.08V39.08C33.837 39.08 31.4225 40.0218 29.6289 42.0264L32.6099 44.6936ZM36.6394 43.08H53.5594V39.08H36.6394V43.08ZM53.5594 43.08C55.2519 43.08 56.7729 42.4979 58.0247 41.3599L55.334 38.4001C54.8258 38.8621 54.2668 39.08 53.5594 39.08V43.08ZM58.0936 41.2942C59.0165 40.3713 59.8973 39.4066 60.7358 38.4004L57.6629 35.8396C56.9015 36.7534 56.1022 37.6287 55.2652 38.4658L58.0936 41.2942ZM60.6737 38.4714C61.5165 37.552 62.3536 36.7154 63.1847 35.9599L60.494 33.0001C59.5651 33.8446 58.6423 34.768 57.7251 35.7686L60.6737 38.4714ZM63.2536 35.8942C63.7741 35.3737 64.3114 35.16 64.9594 35.16V31.16C63.2074 31.16 61.6647 31.8262 60.4252 33.0658L63.2536 35.8942ZM64.9594 35.16H92.6794V31.16H64.9594V35.16ZM92.6794 35.16C93.3274 35.16 93.8647 35.3737 94.3852 35.8942L97.2136 33.0658C95.9741 31.8262 94.4314 31.16 92.6794 31.16V35.16ZM94.454 35.9599C95.2625 36.6948 96.039 37.5076 96.7829 38.4004L99.8558 35.8396C98.9998 34.8124 98.0963 33.8652 97.1447 33.0001L94.454 35.9599ZM96.8451 38.4714C97.7437 39.4518 98.6438 40.3928 99.5452 41.2942L102.374 38.4658C101.515 37.6072 100.655 36.7082 99.7937 35.7685L96.8451 38.4714ZM99.614 41.3599C100.866 42.4979 102.387 43.08 104.079 43.08V39.08C103.372 39.08 102.813 38.8621 102.305 38.4001L99.614 41.3599ZM104.079 43.08H122.199V39.08H104.079V43.08ZM122.199 43.08C124.037 43.08 125.302 43.6582 126.229 44.6936L129.21 42.0264C127.416 40.0218 125.002 39.08 122.199 39.08V43.08ZM126.229 44.6936C127.183 45.7602 127.759 47.2818 127.759 49.48H131.759C131.759 46.5582 130.976 43.9998 129.21 42.0264L126.229 44.6936ZM127.759 49.48V54.4H131.759V49.48H127.759ZM127.759 54.4C127.759 56.5982 127.183 58.1198 126.229 59.1864L129.21 61.8536C130.976 59.8802 131.759 57.3218 131.759 54.4H127.759ZM126.229 59.1864C125.302 60.2218 124.037 60.8 122.199 60.8V64.8C125.002 64.8 127.416 63.8582 129.21 61.8536L126.229 59.1864ZM122.199 60.8H101.319V64.8H122.199V60.8ZM99.5305 63.6944C100.208 65.0497 101.642 65.8372 103.017 66.3527L104.422 62.6073C103.882 62.4048 103.526 62.2153 103.306 62.0615C103.084 61.9059 103.075 61.8393 103.108 61.9056L99.5305 63.6944ZM103.155 66.3987C104.615 66.8281 106.338 67.204 108.311 67.5328L108.968 63.5872C107.101 63.276 105.544 62.9319 104.284 62.5613L103.155 66.3987ZM108.311 67.5328C110.305 67.8651 112.49 68.1117 114.862 68.2753L115.137 64.2847C112.869 64.1283 110.814 63.8949 108.968 63.5872L108.311 67.5328ZM114.866 68.2756C117.288 68.437 119.711 68.5581 122.133 68.6389L122.266 64.6411C119.888 64.5618 117.51 64.443 115.132 64.2844L114.866 68.2756ZM122.13 68.6388C123.988 68.7029 125.284 69.3174 126.229 70.3736L129.21 67.7064C127.435 65.7226 125.051 64.7371 122.268 64.6412L122.13 68.6388ZM126.229 70.3736C127.183 71.4402 127.759 72.9618 127.759 75.16H131.759C131.759 72.2382 130.976 69.6798 129.21 67.7064L126.229 70.3736ZM127.759 75.16V78.64H131.759V75.16H127.759ZM207.206 140.08L205.716 141.414L205.716 141.414L207.206 140.08ZM207.206 38.08L205.716 36.7464L205.716 36.7464L207.206 38.08ZM236.126 71.32L234.712 72.7342L234.749 72.7714L234.788 72.8066L236.126 71.32ZM238.766 73.36L237.657 75.0241L237.707 75.0573L237.759 75.0876L238.766 73.36ZM241.286 75.28L239.872 76.6942L239.95 76.7725L240.037 76.8417L241.286 75.28ZM241.286 99.4L239.948 97.9134L239.909 97.9486L239.872 97.9858L241.286 99.4ZM238.766 101.44L239.774 103.168L239.826 103.137L239.876 103.104L238.766 101.44ZM236.126 103.36L237.455 104.855L237.464 104.847L236.126 103.36ZM200.246 42.28L201.737 40.9464L201.737 40.9464L200.246 42.28ZM200.246 63.88L201.737 65.2136L201.737 65.2136L200.246 63.88ZM139.166 63.88L137.676 65.2136L137.695 65.2348L137.714 65.2555L139.166 63.88ZM139.166 42.28L137.714 40.9045L137.695 40.9252L137.676 40.9464L139.166 42.28ZM155.606 39.04L154.192 37.6258L154.192 37.6258L155.606 39.04ZM157.526 36.76L155.909 35.5837L155.898 35.5983L155.888 35.6131L157.526 36.76ZM159.446 34.36L158.032 32.9458L157.99 32.9873L157.951 33.0313L159.446 34.36ZM179.966 34.36L178.471 35.6887L178.51 35.7327L178.552 35.7742L179.966 34.36ZM181.886 36.76L180.199 37.8337L180.257 37.925L180.325 38.0094L181.886 36.76ZM183.806 39.04L182.311 40.3687L182.39 40.4567L182.478 40.5348L183.806 39.04ZM171.326 123.76V125.76H172.97L173.288 124.147L171.326 123.76ZM171.326 87.76L173.288 87.3731L172.97 85.76H171.326V87.76ZM168.206 87.76V85.76H165.807L166.239 88.1202L168.206 87.76ZM168.206 123.76L166.239 123.4L165.807 125.76H168.206V123.76ZM155.246 143.08L155.445 141.09L155.431 141.089L155.417 141.087L155.246 143.08ZM147.806 141.04L148.727 139.264L148.701 139.251L148.674 139.238L147.806 141.04ZM142.286 137.08L143.736 135.703L143.719 135.684L143.7 135.666L142.286 137.08ZM138.686 131.8L136.84 132.569L136.848 132.587L136.856 132.605L138.686 131.8ZM137.126 125.8L135.136 125.999L135.138 126.014L135.139 126.029L137.126 125.8ZM136.526 116.92L134.527 116.964L134.527 116.988L134.528 117.011L136.526 116.92ZM136.526 94.84L134.528 94.7512L134.527 94.7729L134.527 94.7946L136.526 94.84ZM137.126 85.84L135.138 85.6191L135.137 85.6301L135.136 85.641L137.126 85.84ZM138.686 79.6L136.856 78.7945L136.842 78.8256L136.829 78.8572L138.686 79.6ZM142.286 74.32L143.7 75.7342L143.719 75.7161L143.736 75.6975L142.286 74.32ZM147.806 70.36L146.939 68.558L146.939 68.558L147.806 70.36ZM155.246 68.44L155.08 66.4469L155.075 66.4473L155.246 68.44ZM169.046 67.84V69.84H169.064L169.083 69.8397L169.046 67.84ZM182.846 68.44L182.647 70.4301L182.661 70.4315L182.675 70.4327L182.846 68.44ZM190.406 70.36L189.564 72.174L189.576 72.1796L189.588 72.185L190.406 70.36ZM196.406 74.32L195.027 75.7683L195.045 75.7859L195.064 75.8031L196.406 74.32ZM202.166 85.84L204.156 85.641L204.155 85.6301L204.154 85.6191L202.166 85.84ZM202.646 94.84L200.647 94.8844L200.647 94.9076L200.648 94.9308L202.646 94.84ZM202.646 116.92L200.648 116.831L200.647 116.853L200.647 116.875L202.646 116.92ZM202.166 125.8L204.153 126.029L204.155 126.014L204.156 125.999L202.166 125.8ZM200.366 131.8L198.577 130.906L198.57 130.92L198.563 130.935L200.366 131.8ZM196.406 137.08L195.064 135.597L195.045 135.614L195.027 135.632L196.406 137.08ZM190.406 141.04L189.588 139.215L189.576 139.22L189.564 139.226L190.406 141.04ZM182.846 143.08L182.619 141.093L182.614 141.093L182.846 143.08ZM169.046 143.8L169.083 141.8L169.064 141.8H169.046V143.8ZM233.046 133.96C233.046 136.158 232.47 137.68 231.516 138.746L234.497 141.414C236.262 139.44 237.046 136.882 237.046 133.96H233.046ZM231.516 138.746C230.589 139.782 229.324 140.36 227.486 140.36V144.36C230.289 144.36 232.703 143.418 234.497 141.414L231.516 138.746ZM227.486 140.36H212.726V144.36H227.486V140.36ZM212.726 140.36C210.889 140.36 209.623 139.782 208.697 138.746L205.716 141.414C207.509 143.418 209.924 144.36 212.726 144.36V140.36ZM208.697 138.746C207.742 137.68 207.166 136.158 207.166 133.96H203.166C203.166 136.882 203.95 139.44 205.716 141.414L208.697 138.746ZM207.166 133.96V44.2H203.166V133.96H207.166ZM207.166 44.2C207.166 42.0018 207.742 40.4802 208.697 39.4136L205.716 36.7464C203.95 38.7198 203.166 41.2782 203.166 44.2H207.166ZM208.697 39.4136C209.623 38.3782 210.889 37.8 212.726 37.8V33.8C209.924 33.8 207.509 34.7418 205.716 36.7464L208.697 39.4136ZM212.726 37.8H227.486V33.8H212.726V37.8ZM227.486 37.8C229.324 37.8 230.589 38.3782 231.516 39.4136L234.497 36.7464C232.703 34.7418 230.289 33.8 227.486 33.8V37.8ZM231.516 39.4136C232.47 40.4802 233.046 42.0018 233.046 44.2H237.046C237.046 41.2782 236.262 38.7198 234.497 36.7464L231.516 39.4136ZM233.046 44.2V68.32H237.046V44.2H233.046ZM233.046 68.32C233.046 69.9867 233.526 71.5484 234.712 72.7342L237.54 69.9058C237.286 69.6516 237.046 69.2133 237.046 68.32H233.046ZM234.788 72.8066C235.665 73.5956 236.622 74.3343 237.657 75.0241L239.876 71.6959C238.99 71.1057 238.187 70.4844 237.464 69.8334L234.788 72.8066ZM237.759 75.0876C238.584 75.5688 239.284 76.1062 239.872 76.6942L242.7 73.8658C241.848 73.0138 240.869 72.2712 239.774 71.6324L237.759 75.0876ZM240.037 76.8417C240.246 77.0093 240.486 77.3214 240.486 78.16H244.486C244.486 76.4386 243.926 74.8307 242.536 73.7183L240.037 76.8417ZM240.486 78.16V96.4H244.486V78.16H240.486ZM240.486 96.4C240.486 97.2302 240.247 97.6446 239.948 97.9134L242.624 100.887C243.925 99.7154 244.486 98.1298 244.486 96.4H240.486ZM239.872 97.9858C239.257 98.6013 238.521 99.1995 237.657 99.7759L239.876 103.104C240.931 102.401 241.876 101.639 242.7 100.814L239.872 97.9858ZM237.759 99.7124C236.684 100.339 235.693 101.059 234.788 101.873L237.464 104.847C238.159 104.221 238.928 103.661 239.774 103.168L237.759 99.7124ZM234.798 101.865C233.522 102.999 233.046 104.587 233.046 106.24H237.046C237.046 105.333 237.29 105.001 237.455 104.855L234.798 101.865ZM233.046 106.24V133.96H237.046V106.24H233.046ZM194.726 42C196.564 42 197.829 42.5782 198.756 43.6136L201.737 40.9464C199.943 38.9418 197.529 38 194.726 38V42ZM198.756 43.6136C199.71 44.6802 200.286 46.2018 200.286 48.4H204.286C204.286 45.4782 203.502 42.9198 201.737 40.9464L198.756 43.6136ZM200.286 48.4V57.76H204.286V48.4H200.286ZM200.286 57.76C200.286 59.9582 199.71 61.4798 198.756 62.5464L201.737 65.2136C203.502 63.2402 204.286 60.6818 204.286 57.76H200.286ZM198.756 62.5464C197.829 63.5818 196.564 64.16 194.726 64.16V68.16C197.529 68.16 199.943 67.2182 201.737 65.2136L198.756 62.5464ZM194.726 64.16H144.686V68.16H194.726V64.16ZM144.686 64.16C142.953 64.16 141.652 63.5958 140.618 62.5045L137.714 65.2555C139.561 67.2042 141.94 68.16 144.686 68.16V64.16ZM140.657 62.5464C139.702 61.4798 139.126 59.9582 139.126 57.76H135.126C135.126 60.6818 135.91 63.2402 137.676 65.2136L140.657 62.5464ZM139.126 57.76V48.4H135.126V57.76H139.126ZM139.126 48.4C139.126 46.2018 139.702 44.6802 140.657 43.6136L137.676 40.9464C135.91 42.9198 135.126 45.4782 135.126 48.4H139.126ZM140.618 43.6555C141.638 42.5794 142.97 42 144.806 42V38C142.003 38 139.575 38.9406 137.714 40.9045L140.618 43.6555ZM144.806 42H153.206V38H144.806V42ZM153.206 42C154.661 42 155.981 41.4938 157.02 40.4542L154.192 37.6258C153.952 37.8662 153.672 38 153.206 38V42ZM157.02 40.4542C157.819 39.6553 158.535 38.8064 159.165 37.9069L155.888 35.6131C155.397 36.3136 154.833 36.9847 154.192 37.6258L157.02 40.4542ZM159.144 37.9363C159.75 37.1025 160.35 36.3542 160.941 35.6887L157.951 33.0313C157.263 33.8058 156.582 34.6575 155.909 35.5837L159.144 37.9363ZM160.86 35.7742C161.231 35.404 161.571 35.28 161.966 35.28V31.28C160.441 31.28 159.102 31.876 158.032 32.9458L160.86 35.7742ZM161.966 35.28H177.566V31.28H161.966V35.28ZM177.566 35.28C177.953 35.28 178.209 35.394 178.471 35.6887L181.461 33.0313C180.443 31.886 179.1 31.28 177.566 31.28V35.28ZM178.552 35.7742C179.166 36.3885 179.715 37.0738 180.199 37.8337L183.574 35.6862C182.937 34.6861 182.206 33.7715 181.38 32.9458L178.552 35.7742ZM180.325 38.0094C180.985 38.8347 181.647 39.6213 182.311 40.3687L185.301 37.7113C184.685 37.0187 184.068 36.2853 183.448 35.5106L180.325 38.0094ZM182.478 40.5348C183.562 41.499 184.875 42 186.326 42V38C185.858 38 185.49 37.861 185.135 37.5452L182.478 40.5348ZM186.326 42H194.726V38H186.326V42ZM173.288 124.147C174.436 118.328 175.006 112.198 175.006 105.76H171.006C171.006 111.962 170.457 117.832 169.364 123.373L173.288 124.147ZM175.006 105.76C175.006 99.3218 174.436 93.1915 173.288 87.3731L169.364 88.1469C170.457 93.6885 171.006 99.5582 171.006 105.76H175.006ZM171.326 85.76H168.206V89.76H171.326V85.76ZM166.239 88.1202C167.255 93.6708 167.766 99.5496 167.766 105.76H171.766C171.766 99.3304 171.237 93.2092 170.174 87.3998L166.239 88.1202ZM167.766 105.76C167.766 111.97 167.255 117.849 166.239 123.4L170.174 124.12C171.237 118.311 171.766 112.19 171.766 105.76H167.766ZM168.206 125.76H171.326V121.76H168.206V125.76ZM155.417 141.087C152.839 140.866 150.62 140.246 148.727 139.264L146.886 142.816C149.312 144.074 152.054 144.814 155.075 145.073L155.417 141.087ZM148.674 139.238C146.713 138.294 145.076 137.112 143.736 135.703L140.836 138.457C142.537 140.248 144.579 141.706 146.939 142.842L148.674 139.238ZM143.7 135.666C142.359 134.324 141.299 132.771 140.517 130.995L136.856 132.605C137.834 134.829 139.174 136.796 140.872 138.494L143.7 135.666ZM140.532 131.031C139.805 129.284 139.332 127.466 139.113 125.571L135.139 126.029C135.401 128.294 135.968 130.476 136.84 132.569L140.532 131.031ZM139.116 125.601C138.881 123.249 138.683 120.328 138.524 116.829L134.528 117.011C134.689 120.552 134.891 123.551 135.136 125.999L139.116 125.601ZM138.526 116.876C138.446 113.291 138.406 109.626 138.406 105.88H134.406C134.406 109.654 134.446 113.349 134.527 116.964L138.526 116.876ZM138.406 105.88C138.406 102.054 138.446 98.389 138.526 94.8854L134.527 94.7946C134.446 98.331 134.406 102.026 134.406 105.88H138.406ZM138.524 94.9288C138.683 91.3496 138.881 88.3893 139.116 86.039L135.136 85.641C134.891 88.0907 134.689 91.1304 134.528 94.7512L138.524 94.9288ZM139.114 86.0609C139.334 84.0783 139.811 82.174 140.543 80.3428L136.829 78.8572C135.962 81.026 135.398 83.2817 135.138 85.6191L139.114 86.0609ZM140.517 80.4055C141.299 78.6286 142.359 77.0759 143.7 75.7342L140.872 72.9058C139.174 74.6041 137.834 76.5714 136.856 78.7945L140.517 80.4055ZM143.736 75.6975C145.076 74.2877 146.713 73.106 148.674 72.162L146.939 68.558C144.579 69.694 142.537 71.1523 140.836 72.9425L143.736 75.6975ZM148.674 72.162C150.581 71.2438 152.818 70.6555 155.417 70.4327L155.075 66.4473C152.074 66.7045 149.352 67.3962 146.939 68.558L148.674 72.162ZM155.412 70.4331C160.162 70.0373 164.707 69.84 169.046 69.84V65.84C164.586 65.84 159.93 66.0427 155.08 66.4469L155.412 70.4331ZM169.083 69.8397C173.397 69.7612 177.918 69.9572 182.647 70.4301L183.045 66.4499C178.174 65.9628 173.496 65.7588 169.01 65.8403L169.083 69.8397ZM182.675 70.4327C185.275 70.6555 187.563 71.2448 189.564 72.174L191.248 68.546C188.77 67.3951 186.018 66.7045 183.017 66.4473L182.675 70.4327ZM189.588 72.185C191.721 73.1411 193.526 74.3391 195.027 75.7683L197.786 72.8717C195.926 71.1009 193.732 69.6589 191.224 68.535L189.588 72.185ZM195.064 75.8031C196.556 77.1528 197.718 78.7043 198.563 80.4655L202.169 78.7345C201.095 76.4957 199.616 74.5272 197.748 72.8369L195.064 75.8031ZM198.563 80.4655C199.428 82.2668 199.964 84.1293 200.178 86.0609L204.154 85.6191C203.889 83.2307 203.225 80.9332 202.169 78.7345L198.563 80.4655ZM200.176 86.039C200.409 88.3693 200.567 91.3136 200.647 94.8844L204.646 94.7956C204.565 91.1664 204.403 88.1107 204.156 85.641L200.176 86.039ZM200.648 94.9308C200.807 98.418 200.886 102.068 200.886 105.88H204.886C204.886 102.012 204.806 98.302 204.644 94.7492L200.648 94.9308ZM200.886 105.88C200.886 109.612 200.807 113.262 200.648 116.831L204.644 117.009C204.806 113.378 204.886 109.668 204.886 105.88H200.886ZM200.647 116.875C200.567 120.364 200.409 123.269 200.176 125.601L204.156 125.999C204.403 123.531 204.565 120.516 204.646 116.965L200.647 116.875ZM200.179 125.571C199.967 127.413 199.436 129.189 198.577 130.906L202.155 132.694C203.217 130.571 203.886 128.347 204.153 126.029L200.179 125.571ZM198.563 130.935C197.718 132.696 196.556 134.247 195.064 135.597L197.748 138.563C199.616 136.873 201.095 134.904 202.169 132.665L198.563 130.935ZM195.027 135.632C193.526 137.061 191.721 138.259 189.588 139.215L191.224 142.865C193.732 141.741 195.926 140.299 197.786 138.528L195.027 135.632ZM189.564 139.226C187.544 140.164 185.236 140.794 182.619 141.093L183.073 145.067C186.057 144.726 188.789 143.996 191.248 142.854L189.564 139.226ZM182.614 141.093C177.895 141.644 173.385 141.879 169.083 141.8L169.01 145.8C173.508 145.881 178.198 145.636 183.078 145.067L182.614 141.093ZM169.046 141.8C164.719 141.8 160.185 141.564 155.445 141.09L155.047 145.07C159.907 145.556 164.574 145.8 169.046 145.8V141.8ZM343.693 140.08L345.184 141.414L345.184 141.414L343.693 140.08ZM247.213 140.08L245.723 141.414L245.723 141.414L247.213 140.08ZM247.213 113.2L245.723 111.866L245.723 111.866L247.213 113.2ZM343.693 113.2L345.184 111.866L345.184 111.866L343.693 113.2ZM343.693 103.6L345.184 104.934L345.184 104.934L343.693 103.6ZM247.213 103.6L245.723 104.934L245.723 104.934L247.213 103.6ZM247.213 38.08L245.723 36.7464L245.723 36.7464L247.213 38.08ZM343.693 38.08L345.184 36.7464L345.184 36.7464L343.693 38.08ZM343.693 65.8L345.248 67.0584L345.248 67.0584L343.693 65.8ZM338.293 68.56L338.151 66.5651L338.14 66.5658L338.13 66.5667L338.293 68.56ZM324.013 69.52L324.082 71.5188L324.099 71.5182L324.116 71.5173L324.013 69.52ZM310.093 69.64L310.059 71.6397L310.059 71.6397L310.093 69.64ZM296.053 69.16L295.918 71.1554L295.935 71.1566L295.952 71.1574L296.053 69.16ZM281.413 67.84L281.634 65.8522L279.413 65.6055V67.84H281.413ZM281.413 73.84H279.413V75.6301L281.192 75.8278L281.413 73.84ZM296.053 75.16L295.918 77.1554L295.935 77.1566L295.952 77.1574L296.053 75.16ZM310.093 75.64L310.128 73.6403L310.128 73.6403L310.093 75.64ZM324.013 75.52L324.082 77.5188L324.099 77.5182L324.116 77.5173L324.013 75.52ZM338.293 74.56L338.151 72.5651L338.14 72.5658L338.13 72.5667L338.293 74.56ZM343.693 76.36L345.107 74.9458L345.107 74.9458L343.693 76.36ZM343.733 133.96C343.733 136.158 343.157 137.68 342.203 138.746L345.184 141.414C346.949 139.44 347.733 136.882 347.733 133.96H343.733ZM342.203 138.746C341.276 139.782 340.011 140.36 338.173 140.36V144.36C340.975 144.36 343.39 143.418 345.184 141.414L342.203 138.746ZM338.173 140.36H252.733V144.36H338.173V140.36ZM252.733 140.36C250.895 140.36 249.63 139.782 248.704 138.746L245.723 141.414C247.516 143.418 249.931 144.36 252.733 144.36V140.36ZM248.704 138.746C247.749 137.68 247.173 136.158 247.173 133.96H243.173C243.173 136.882 243.957 139.44 245.723 141.414L248.704 138.746ZM247.173 133.96V119.32H243.173V133.96H247.173ZM247.173 119.32C247.173 117.122 247.749 115.6 248.704 114.534L245.723 111.866C243.957 113.84 243.173 116.398 243.173 119.32H247.173ZM248.704 114.534C249.63 113.498 250.895 112.92 252.733 112.92V108.92C249.931 108.92 247.516 109.862 245.723 111.866L248.704 114.534ZM252.733 112.92H338.173V108.92H252.733V112.92ZM338.173 112.92C340.011 112.92 341.276 113.498 342.203 114.534L345.184 111.866C343.39 109.862 340.975 108.92 338.173 108.92V112.92ZM342.203 114.534C343.157 115.6 343.733 117.122 343.733 119.32H347.733C347.733 116.398 346.949 113.84 345.184 111.866L342.203 114.534ZM343.733 119.32V133.96H347.733V119.32H343.733ZM343.733 97.48C343.733 99.6782 343.157 101.2 342.203 102.266L345.184 104.934C346.949 102.96 347.733 100.402 347.733 97.48H343.733ZM342.203 102.266C341.276 103.302 340.011 103.88 338.173 103.88V107.88C340.975 107.88 343.39 106.938 345.184 104.934L342.203 102.266ZM338.173 103.88H252.733V107.88H338.173V103.88ZM252.733 103.88C250.895 103.88 249.63 103.302 248.704 102.266L245.723 104.934C247.516 106.938 249.931 107.88 252.733 107.88V103.88ZM248.704 102.266C247.749 101.2 247.173 99.6782 247.173 97.48H243.173C243.173 100.402 243.957 102.96 245.723 104.934L248.704 102.266ZM247.173 97.48V44.2H243.173V97.48H247.173ZM247.173 44.2C247.173 42.0018 247.749 40.4802 248.704 39.4136L245.723 36.7464C243.957 38.7198 243.173 41.2782 243.173 44.2H247.173ZM248.704 39.4136C249.63 38.3782 250.895 37.8 252.733 37.8V33.8C249.931 33.8 247.516 34.7418 245.723 36.7464L248.704 39.4136ZM252.733 37.8H338.173V33.8H252.733V37.8ZM338.173 37.8C340.011 37.8 341.276 38.3782 342.203 39.4136L345.184 36.7464C343.39 34.7418 340.975 33.8 338.173 33.8V37.8ZM342.203 39.4136C343.157 40.4802 343.733 42.0018 343.733 44.2H347.733C347.733 41.2782 346.949 38.7198 345.184 36.7464L342.203 39.4136ZM343.733 44.2V59.44H347.733V44.2H343.733ZM343.733 59.44C343.733 61.6299 343.159 63.2806 342.139 64.5416L345.248 67.0584C346.947 64.9594 347.733 62.37 347.733 59.44H343.733ZM342.139 64.5416C341.142 65.7726 339.863 66.4428 338.151 66.5651L338.436 70.5549C341.204 70.3572 343.524 69.1873 345.248 67.0584L342.139 64.5416ZM338.13 66.5667C333.269 66.9651 328.529 67.2838 323.91 67.5227L324.116 71.5173C328.778 71.2762 333.558 70.9549 338.457 70.5533L338.13 66.5667ZM323.944 67.5212C319.339 67.68 314.733 67.7197 310.128 67.6403L310.059 71.6397C314.733 71.7203 319.408 71.68 324.082 71.5188L323.944 67.5212ZM310.128 67.6403C305.51 67.5607 300.853 67.4015 296.155 67.1626L295.952 71.1574C300.693 71.3985 305.396 71.5593 310.059 71.6397L310.128 67.6403ZM296.188 67.1646C291.499 66.8466 286.648 66.4093 281.634 65.8522L281.192 69.8278C286.259 70.3907 291.167 70.8333 295.918 71.1554L296.188 67.1646ZM279.413 67.84V73.84H283.413V67.84H279.413ZM281.192 75.8278C286.259 76.3907 291.167 76.8333 295.918 77.1554L296.188 73.1646C291.499 72.8466 286.648 72.4093 281.634 71.8522L281.192 75.8278ZM295.952 77.1574C300.694 77.3985 305.396 77.5593 310.059 77.6397L310.128 73.6403C305.51 73.5607 300.853 73.4015 296.155 73.1626L295.952 77.1574ZM310.059 77.6397C314.733 77.7203 319.408 77.68 324.082 77.5188L323.944 73.5212C319.339 73.68 314.733 73.7197 310.128 73.6403L310.059 77.6397ZM324.116 77.5173C328.778 77.2762 333.558 76.9549 338.457 76.5533L338.13 72.5667C333.269 72.9651 328.529 73.2838 323.91 73.5227L324.116 77.5173ZM338.436 76.5549C340.204 76.4286 341.399 76.8947 342.279 77.7742L345.107 74.9458C343.267 73.1053 340.862 72.3714 338.151 72.5651L338.436 76.5549ZM342.279 77.7742C343.152 78.6478 343.733 80.0289 343.733 82.24H347.733C347.733 79.3311 346.954 76.7922 345.107 74.9458L342.279 77.7742ZM343.733 82.24V97.48H347.733V82.24H343.733ZM451.74 91.72L453.23 93.0536L453.23 93.0536L451.74 91.72ZM421.14 91.72L419.65 93.0536L419.65 93.0536L421.14 91.72ZM421.14 38.08L419.65 36.7464L419.65 36.7464L421.14 38.08ZM451.74 38.08L453.23 36.7464L453.23 36.7464L451.74 38.08ZM422.34 120.04H424.34V117.622L421.965 118.076L422.34 120.04ZM384.66 120.04L385.035 118.076L382.66 117.622V120.04H384.66ZM384.66 122.92H382.66V124.574L384.285 124.884L384.66 122.92ZM422.34 122.92L422.715 124.884L424.34 124.574V122.92H422.34ZM451.74 140.08L453.23 141.414L453.23 141.414L451.74 140.08ZM355.26 140.08L353.77 141.414L353.77 141.414L355.26 140.08ZM355.26 98.68L353.77 97.3464L353.77 97.3464L355.26 98.68ZM382.26 97.24L381.032 98.8187L381.09 98.8636L381.151 98.9041L382.26 97.24ZM384.3 98.92L382.886 100.334L382.933 100.381L382.983 100.425L384.3 98.92ZM386.34 100.48L387.449 98.8159L387.449 98.8159L386.34 100.48ZM420.78 100.48L419.671 98.8159L419.671 98.8159L420.78 100.48ZM422.82 98.92L424.137 100.425L424.187 100.381L424.234 100.334L422.82 98.92ZM424.86 97.24L425.969 98.9041L426.03 98.8636L426.088 98.8187L424.86 97.24ZM451.74 98.68L453.23 97.3464L453.23 97.3464L451.74 98.68ZM413.46 91.72L414.95 93.0536L414.95 93.0536L413.46 91.72ZM355.26 91.72L353.77 93.0536L353.77 93.0536L355.26 91.72ZM355.26 59.32L356.814 60.5784L356.814 60.5784L355.26 59.32ZM360.66 56.56L360.569 54.5621L360.543 54.5632L360.518 54.5651L360.66 56.56ZM370.98 56.56L370.885 58.5577L370.909 58.5589L370.932 58.5594L370.98 56.56ZM381.42 57.28L381.199 59.2678L383.42 59.5145V57.28H381.42ZM381.42 54.4H383.42V52.6099L381.641 52.4122L381.42 54.4ZM370.98 53.68L370.885 55.6777L370.909 55.6789L370.932 55.6794L370.98 53.68ZM360.66 53.68L360.569 51.6821L360.546 51.6831L360.522 51.6847L360.66 53.68ZM355.14 51.88L353.645 53.2087L353.684 53.2526L353.726 53.2942L355.14 51.88ZM355.26 38.08L353.77 36.7464L353.77 36.7464L355.26 38.08ZM413.46 38.08L414.95 36.7464L414.95 36.7464L413.46 38.08ZM413.34 70.36L411.821 69.0584L411.803 69.0798L411.786 69.1016L413.34 70.36ZM407.94 73.12L408.036 75.1177L408.059 75.1166L408.082 75.1149L407.94 73.12ZM387.18 72.4L387.401 70.4122L385.18 70.1655V72.4H387.18ZM387.18 75.28H385.18V77.0701L386.959 77.2678L387.18 75.28ZM407.94 76L408.036 77.9977L408.057 77.9967L408.078 77.9953L407.94 76ZM413.46 77.92L412.006 79.2932L412.026 79.314L412.046 79.3342L413.46 77.92ZM451.78 85.6C451.78 87.7982 451.204 89.3198 450.25 90.3864L453.23 93.0536C454.996 91.0802 455.78 88.5218 455.78 85.6H451.78ZM450.25 90.3864C449.323 91.4218 448.058 92 446.22 92V96C449.022 96 451.437 95.0582 453.23 93.0536L450.25 90.3864ZM446.22 92H426.66V96H446.22V92ZM426.66 92C424.822 92 423.557 91.4218 422.63 90.3864L419.65 93.0536C421.443 95.0582 423.858 96 426.66 96V92ZM422.63 90.3864C421.676 89.3198 421.1 87.7982 421.1 85.6H417.1C417.1 88.5218 417.884 91.0802 419.65 93.0536L422.63 90.3864ZM421.1 85.6V44.2H417.1V85.6H421.1ZM421.1 44.2C421.1 42.0018 421.676 40.4802 422.63 39.4136L419.65 36.7464C417.884 38.7198 417.1 41.2782 417.1 44.2H421.1ZM422.63 39.4136C423.557 38.3782 424.822 37.8 426.66 37.8V33.8C423.858 33.8 421.443 34.7418 419.65 36.7464L422.63 39.4136ZM426.66 37.8H446.22V33.8H426.66V37.8ZM446.22 37.8C448.058 37.8 449.323 38.3782 450.25 39.4136L453.23 36.7464C451.437 34.7418 449.022 33.8 446.22 33.8V37.8ZM450.25 39.4136C451.204 40.4802 451.78 42.0018 451.78 44.2H455.78C455.78 41.2782 454.996 38.7198 453.23 36.7464L450.25 39.4136ZM451.78 44.2V85.6H455.78V44.2H451.78ZM421.965 118.076C409.653 120.428 397.347 120.428 385.035 118.076L384.285 122.004C397.093 124.452 409.907 124.452 422.715 122.004L421.965 118.076ZM382.66 120.04V122.92H386.66V120.04H382.66ZM384.285 124.884C397.093 127.332 409.907 127.332 422.715 124.884L421.965 120.956C409.653 123.308 397.347 123.308 385.035 120.956L384.285 124.884ZM424.34 122.92V120.04H420.34V122.92H424.34ZM451.78 133.96C451.78 136.158 451.204 137.68 450.25 138.746L453.23 141.414C454.996 139.44 455.78 136.882 455.78 133.96H451.78ZM450.25 138.746C449.323 139.782 448.058 140.36 446.22 140.36V144.36C449.022 144.36 451.437 143.418 453.23 141.414L450.25 138.746ZM446.22 140.36H360.78V144.36H446.22V140.36ZM360.78 140.36C358.942 140.36 357.677 139.782 356.75 138.746L353.77 141.414C355.563 143.418 357.978 144.36 360.78 144.36V140.36ZM356.75 138.746C355.796 137.68 355.22 136.158 355.22 133.96H351.22C351.22 136.882 352.004 139.44 353.77 141.414L356.75 138.746ZM355.22 133.96V104.8H351.22V133.96H355.22ZM355.22 104.8C355.22 102.602 355.796 101.08 356.75 100.014L353.77 97.3464C352.004 99.3198 351.22 101.878 351.22 104.8H355.22ZM356.75 100.014C357.677 98.9782 358.942 98.4 360.78 98.4V94.4C357.978 94.4 355.563 95.3418 353.77 97.3464L356.75 100.014ZM360.78 98.4H379.98V94.4H360.78V98.4ZM379.98 98.4C380.274 98.4 380.612 98.4916 381.032 98.8187L383.488 95.6613C382.468 94.8684 381.286 94.4 379.98 94.4V98.4ZM381.151 98.9041C381.756 99.3078 382.335 99.7831 382.886 100.334L385.714 97.5058C384.985 96.7769 384.204 96.1322 383.369 95.5759L381.151 98.9041ZM382.983 100.425C383.69 101.044 384.439 101.617 385.231 102.144L387.449 98.8159C386.801 98.3834 386.19 97.9164 385.617 97.4148L382.983 100.425ZM385.231 102.144C386.251 102.824 387.393 103.2 388.62 103.2V99.2C388.247 99.2 387.869 99.0956 387.449 98.8159L385.231 102.144ZM388.62 103.2H418.5V99.2H388.62V103.2ZM418.5 103.2C419.727 103.2 420.869 102.824 421.889 102.144L419.671 98.8159C419.251 99.0956 418.873 99.2 418.5 99.2V103.2ZM421.889 102.144C422.681 101.617 423.43 101.044 424.137 100.425L421.503 97.4148C420.93 97.9164 420.319 98.3834 419.671 98.8159L421.889 102.144ZM424.234 100.334C424.785 99.7831 425.364 99.3078 425.969 98.9041L423.751 95.5759C422.916 96.1322 422.135 96.7769 421.406 97.5058L424.234 100.334ZM426.088 98.8187C426.508 98.4916 426.846 98.4 427.14 98.4V94.4C425.834 94.4 424.652 94.8684 423.632 95.6613L426.088 98.8187ZM427.14 98.4H446.22V94.4H427.14V98.4ZM446.22 98.4C448.058 98.4 449.323 98.9782 450.25 100.014L453.23 97.3464C451.437 95.3418 449.022 94.4 446.22 94.4V98.4ZM450.25 100.014C451.204 101.08 451.78 102.602 451.78 104.8H455.78C455.78 101.878 454.996 99.3198 453.23 97.3464L450.25 100.014ZM451.78 104.8V133.96H455.78V104.8H451.78ZM413.5 85.6C413.5 87.7982 412.924 89.3198 411.97 90.3864L414.95 93.0536C416.716 91.0802 417.5 88.5218 417.5 85.6H413.5ZM411.97 90.3864C411.043 91.4218 409.778 92 407.94 92V96C410.742 96 413.157 95.0582 414.95 93.0536L411.97 90.3864ZM407.94 92H360.78V96H407.94V92ZM360.78 92C358.942 92 357.677 91.4218 356.75 90.3864L353.77 93.0536C355.563 95.0582 357.978 96 360.78 96V92ZM356.75 90.3864C355.796 89.3198 355.22 87.7982 355.22 85.6H351.22C351.22 88.5218 352.004 91.0802 353.77 93.0536L356.75 90.3864ZM355.22 85.6V65.68H351.22V85.6H355.22ZM355.22 65.68C355.22 63.49 355.794 61.8394 356.814 60.5784L353.706 58.0616C352.006 60.1606 351.22 62.7499 351.22 65.68H355.22ZM356.814 60.5784C357.811 59.3473 359.091 58.6772 360.802 58.5549L360.518 54.5651C357.749 54.7628 355.429 55.9326 353.706 58.0616L356.814 60.5784ZM360.751 58.5579C364.212 58.4006 367.59 58.4008 370.885 58.5577L371.075 54.5623C367.65 54.3992 364.148 54.3994 360.569 54.5621L360.751 58.5579ZM370.932 58.5594C374.23 58.638 377.652 58.8737 381.199 59.2678L381.641 55.2922C377.988 54.8863 374.45 54.642 371.028 54.5606L370.932 58.5594ZM383.42 57.28V54.4H379.42V57.28H383.42ZM381.641 52.4122C377.988 52.0063 374.45 51.762 371.028 51.6806L370.932 55.6794C374.23 55.758 377.652 55.9937 381.199 56.3878L381.641 52.4122ZM371.075 51.6823C367.65 51.5192 364.148 51.5194 360.569 51.6821L360.751 55.6779C364.212 55.5206 367.59 55.5208 370.885 55.6777L371.075 51.6823ZM360.522 51.6847C358.648 51.814 357.42 51.3319 356.554 50.4658L353.726 53.2942C355.58 55.1481 358.032 55.866 360.798 55.6753L360.522 51.6847ZM356.635 50.5513C355.765 49.5727 355.22 48.1348 355.22 46H351.22C351.22 48.8252 351.955 51.3073 353.645 53.2087L356.635 50.5513ZM355.22 46V44.2H351.22V46H355.22ZM355.22 44.2C355.22 42.0018 355.796 40.4802 356.75 39.4136L353.77 36.7464C352.004 38.7198 351.22 41.2782 351.22 44.2H355.22ZM356.75 39.4136C357.677 38.3782 358.942 37.8 360.78 37.8V33.8C357.978 33.8 355.563 34.7418 353.77 36.7464L356.75 39.4136ZM360.78 37.8H407.94V33.8H360.78V37.8ZM407.94 37.8C409.778 37.8 411.043 38.3782 411.97 39.4136L414.95 36.7464C413.157 34.7418 410.742 33.8 407.94 33.8V37.8ZM411.97 39.4136C412.924 40.4802 413.5 42.0018 413.5 44.2H417.5C417.5 41.2782 416.716 38.7198 414.95 36.7464L411.97 39.4136ZM413.5 44.2V64H417.5V44.2H413.5ZM413.5 64C413.5 66.1619 412.903 67.7969 411.821 69.0584L414.859 71.6616C416.657 69.5631 417.5 66.9581 417.5 64H413.5ZM411.786 69.1016C410.789 70.3326 409.509 71.0028 407.798 71.1251L408.082 75.1149C410.851 74.9172 413.171 73.7473 414.894 71.6184L411.786 69.1016ZM407.844 71.1223C401.318 71.4368 394.505 71.2016 387.401 70.4122L386.959 74.3878C394.255 75.1984 401.282 75.4432 408.036 75.1177L407.844 71.1223ZM385.18 72.4V75.28H389.18V72.4H385.18ZM386.959 77.2678C394.255 78.0784 401.282 78.3232 408.036 77.9977L407.844 74.0023C401.318 74.3168 394.505 74.0816 387.401 73.2922L386.959 77.2678ZM408.078 77.9953C409.916 77.8684 411.13 78.366 412.006 79.2932L414.914 76.5468C413.07 74.594 410.604 73.8116 407.802 74.0047L408.078 77.9953ZM412.046 79.3342C412.931 80.2191 413.5 81.57 413.5 83.68H417.5C417.5 80.83 416.709 78.3408 414.874 76.5058L412.046 79.3342ZM413.5 83.68V85.6H417.5V83.68H413.5ZM559.787 140.08L561.277 141.414L561.277 141.414L559.787 140.08ZM524.867 140.08L526.357 138.746L526.357 138.746L524.867 140.08ZM524.867 38.08L526.357 39.4136L526.357 39.4136L524.867 38.08ZM559.787 38.08L561.277 36.7464L561.277 36.7464L559.787 38.08ZM517.667 140.08L519.157 141.414L519.157 141.414L517.667 140.08ZM463.307 140.08L461.816 141.414L461.816 141.414L463.307 140.08ZM463.307 38.08L461.816 36.7464L461.816 36.7464L463.307 38.08ZM500.267 108.52H498.267V110.52H500.267V108.52ZM517.667 110.8L519.157 109.466L519.157 109.466L517.667 110.8ZM559.827 133.96C559.827 136.158 559.251 137.68 558.296 138.746L561.277 141.414C563.043 139.44 563.827 136.882 563.827 133.96H559.827ZM558.296 138.746C557.37 139.782 556.105 140.36 554.267 140.36V144.36C557.069 144.36 559.484 143.418 561.277 141.414L558.296 138.746ZM554.267 140.36H530.387V144.36H554.267V140.36ZM530.387 140.36C528.549 140.36 527.284 139.782 526.357 138.746L523.376 141.414C525.17 143.418 527.585 144.36 530.387 144.36V140.36ZM526.357 138.746C525.403 137.68 524.827 136.158 524.827 133.96H520.827C520.827 136.882 521.611 139.44 523.376 141.414L526.357 138.746ZM524.827 133.96V44.2H520.827V133.96H524.827ZM524.827 44.2C524.827 42.0018 525.403 40.4802 526.357 39.4136L523.376 36.7464C521.611 38.7198 520.827 41.2782 520.827 44.2H524.827ZM526.357 39.4136C527.284 38.3782 528.549 37.8 530.387 37.8V33.8C527.585 33.8 525.17 34.7418 523.376 36.7464L526.357 39.4136ZM530.387 37.8H554.267V33.8H530.387V37.8ZM554.267 37.8C556.105 37.8 557.37 38.3782 558.296 39.4136L561.277 36.7464C559.484 34.7418 557.069 33.8 554.267 33.8V37.8ZM558.296 39.4136C559.251 40.4802 559.827 42.0018 559.827 44.2H563.827C563.827 41.2782 563.043 38.7198 561.277 36.7464L558.296 39.4136ZM559.827 44.2V133.96H563.827V44.2H559.827ZM517.707 133.96C517.707 136.158 517.131 137.68 516.176 138.746L519.157 141.414C520.923 139.44 521.707 136.882 521.707 133.96H517.707ZM516.176 138.746C515.25 139.782 513.985 140.36 512.147 140.36V144.36C514.949 144.36 517.364 143.418 519.157 141.414L516.176 138.746ZM512.147 140.36H468.827V144.36H512.147V140.36ZM468.827 140.36C466.989 140.36 465.724 139.782 464.797 138.746L461.816 141.414C463.61 143.418 466.025 144.36 468.827 144.36V140.36ZM464.797 138.746C463.843 137.68 463.267 136.158 463.267 133.96H459.267C459.267 136.882 460.051 139.44 461.816 141.414L464.797 138.746ZM463.267 133.96V44.2H459.267V133.96H463.267ZM463.267 44.2C463.267 42.0018 463.843 40.4802 464.797 39.4136L461.816 36.7464C460.051 38.7198 459.267 41.2782 459.267 44.2H463.267ZM464.797 39.4136C465.724 38.3782 466.989 37.8 468.827 37.8V33.8C466.025 33.8 463.61 34.7418 461.816 36.7464L464.797 39.4136ZM468.827 37.8H492.707V33.8H468.827V37.8ZM492.707 37.8C494.545 37.8 495.81 38.3782 496.736 39.4136L499.717 36.7464C497.924 34.7418 495.509 33.8 492.707 33.8V37.8ZM496.736 39.4136C497.691 40.4802 498.267 42.0018 498.267 44.2H502.267C502.267 41.2782 501.483 38.7198 499.717 36.7464L496.736 39.4136ZM498.267 44.2V108.52H502.267V44.2H498.267ZM500.267 110.52H512.147V106.52H500.267V110.52ZM512.147 110.52C513.985 110.52 515.25 111.098 516.176 112.134L519.157 109.466C517.364 107.462 514.949 106.52 512.147 106.52V110.52ZM516.176 112.134C517.131 113.2 517.707 114.722 517.707 116.92H521.707C521.707 113.998 520.923 111.44 519.157 109.466L516.176 112.134ZM517.707 116.92V133.96H521.707V116.92H517.707ZM626.794 140.08L628.284 141.414L628.284 141.414L626.794 140.08ZM571.354 140.08L569.863 141.414L569.863 141.414L571.354 140.08ZM571.354 38.08L569.863 36.7464L569.863 36.7464L571.354 38.08ZM626.794 38.08L628.284 36.7464L628.284 36.7464L626.794 38.08ZM626.794 64.96L628.284 66.2936L628.284 66.2936L626.794 64.96ZM605.074 67.24V65.24H603.074V67.24H605.074ZM605.074 110.92H603.074V112.92H605.074V110.92ZM626.794 113.2L628.284 111.866L628.284 111.866L626.794 113.2ZM633.994 140.08L635.484 138.746L635.484 138.746L633.994 140.08ZM633.994 38.08L635.484 39.4136L635.484 39.4136L633.994 38.08ZM668.314 71.32L666.9 72.7342L666.937 72.7714L666.976 72.8066L668.314 71.32ZM670.954 73.36L669.844 75.0241L669.894 75.0573L669.946 75.0876L670.954 73.36ZM673.474 75.28L672.06 76.6942L672.138 76.7725L672.224 76.8417L673.474 75.28ZM673.474 99.4L672.136 97.9134L672.097 97.9486L672.06 97.9858L673.474 99.4ZM670.954 101.44L671.961 103.168L672.013 103.137L672.063 103.104L670.954 101.44ZM668.314 103.36L669.643 104.855L669.652 104.847L668.314 103.36ZM626.834 133.96C626.834 136.158 626.258 137.68 625.303 138.746L628.284 141.414C630.05 139.44 630.834 136.882 630.834 133.96H626.834ZM625.303 138.746C624.377 139.782 623.111 140.36 621.274 140.36V144.36C624.076 144.36 626.491 143.418 628.284 141.414L625.303 138.746ZM621.274 140.36H576.874V144.36H621.274V140.36ZM576.874 140.36C575.036 140.36 573.771 139.782 572.844 138.746L569.863 141.414C571.657 143.418 574.071 144.36 576.874 144.36V140.36ZM572.844 138.746C571.89 137.68 571.314 136.158 571.314 133.96H567.314C567.314 136.882 568.098 139.44 569.863 141.414L572.844 138.746ZM571.314 133.96V44.2H567.314V133.96H571.314ZM571.314 44.2C571.314 42.0018 571.89 40.4802 572.844 39.4136L569.863 36.7464C568.098 38.7198 567.314 41.2782 567.314 44.2H571.314ZM572.844 39.4136C573.771 38.3782 575.036 37.8 576.874 37.8V33.8C574.071 33.8 571.657 34.7418 569.863 36.7464L572.844 39.4136ZM576.874 37.8H621.274V33.8H576.874V37.8ZM621.274 37.8C623.111 37.8 624.377 38.3782 625.303 39.4136L628.284 36.7464C626.491 34.7418 624.076 33.8 621.274 33.8V37.8ZM625.303 39.4136C626.258 40.4802 626.834 42.0018 626.834 44.2H630.834C630.834 41.2782 630.05 38.7198 628.284 36.7464L625.303 39.4136ZM626.834 44.2V58.84H630.834V44.2H626.834ZM626.834 58.84C626.834 61.0382 626.258 62.5598 625.303 63.6264L628.284 66.2936C630.05 64.3202 630.834 61.7618 630.834 58.84H626.834ZM625.303 63.6264C624.377 64.6618 623.111 65.24 621.274 65.24V69.24C624.076 69.24 626.491 68.2982 628.284 66.2936L625.303 63.6264ZM621.274 65.24H605.074V69.24H621.274V65.24ZM603.074 67.24V110.92H607.074V67.24H603.074ZM605.074 112.92H621.274V108.92H605.074V112.92ZM621.274 112.92C623.111 112.92 624.377 113.498 625.303 114.534L628.284 111.866C626.491 109.862 624.076 108.92 621.274 108.92V112.92ZM625.303 114.534C626.258 115.6 626.834 117.122 626.834 119.32H630.834C630.834 116.398 630.05 113.84 628.284 111.866L625.303 114.534ZM626.834 119.32V133.96H630.834V119.32H626.834ZM665.234 133.96C665.234 136.158 664.658 137.68 663.703 138.746L666.684 141.414C668.45 139.44 669.234 136.882 669.234 133.96H665.234ZM663.703 138.746C662.777 139.782 661.511 140.36 659.674 140.36V144.36C662.476 144.36 664.891 143.418 666.684 141.414L663.703 138.746ZM659.674 140.36H639.514V144.36H659.674V140.36ZM639.514 140.36C637.676 140.36 636.411 139.782 635.484 138.746L632.503 141.414C634.297 143.418 636.711 144.36 639.514 144.36V140.36ZM635.484 138.746C634.53 137.68 633.954 136.158 633.954 133.96H629.954C629.954 136.882 630.738 139.44 632.503 141.414L635.484 138.746ZM633.954 133.96V44.2H629.954V133.96H633.954ZM633.954 44.2C633.954 42.0018 634.53 40.4802 635.484 39.4136L632.503 36.7464C630.738 38.7198 629.954 41.2782 629.954 44.2H633.954ZM635.484 39.4136C636.411 38.3782 637.676 37.8 639.514 37.8V33.8C636.711 33.8 634.297 34.7418 632.503 36.7464L635.484 39.4136ZM639.514 37.8H659.674V33.8H639.514V37.8ZM659.674 37.8C661.511 37.8 662.777 38.3782 663.703 39.4136L666.684 36.7464C664.891 34.7418 662.476 33.8 659.674 33.8V37.8ZM663.703 39.4136C664.658 40.4802 665.234 42.0018 665.234 44.2H669.234C669.234 41.2782 668.45 38.7198 666.684 36.7464L663.703 39.4136ZM665.234 44.2V68.32H669.234V44.2H665.234ZM665.234 68.32C665.234 69.9867 665.714 71.5484 666.9 72.7342L669.728 69.9058C669.474 69.6516 669.234 69.2133 669.234 68.32H665.234ZM666.976 72.8066C667.853 73.5956 668.81 74.3343 669.844 75.0241L672.063 71.6959C671.178 71.1057 670.375 70.4844 669.652 69.8334L666.976 72.8066ZM669.946 75.0876C670.771 75.5688 671.472 76.1062 672.06 76.6942L674.888 73.8658C674.036 73.0138 673.056 72.2712 671.961 71.6324L669.946 75.0876ZM672.224 76.8417C672.434 77.0093 672.674 77.3214 672.674 78.16H676.674C676.674 76.4386 676.114 74.8307 674.723 73.7183L672.224 76.8417ZM672.674 78.16V96.4H676.674V78.16H672.674ZM672.674 96.4C672.674 97.2302 672.435 97.6446 672.136 97.9134L674.812 100.887C676.113 99.7154 676.674 98.1298 676.674 96.4H672.674ZM672.06 97.9858C671.444 98.6013 670.709 99.1995 669.844 99.7759L672.063 103.104C673.119 102.401 674.063 101.639 674.888 100.814L672.06 97.9858ZM669.946 99.7124C668.872 100.339 667.881 101.059 666.976 101.873L669.652 104.847C670.347 104.221 671.116 103.661 671.961 103.168L669.946 99.7124ZM666.985 101.865C665.71 102.999 665.234 104.587 665.234 106.24H669.234C669.234 105.333 669.478 105.001 669.642 104.855L666.985 101.865ZM665.234 106.24V133.96H669.234V106.24H665.234Z" fill="white" mask="url(#path-1-outside-1_882_1990)"/>
<defs>
<linearGradient id="paint0_linear_882_1990" x1="349.5" y1="25" x2="349.5" y2="165" gradientUnits="userSpaceOnUse">
<stop stop-color="#FEC299"/>
<stop offset="1" stop-color="#FF8595"/>
</linearGradient>
</defs>
</svg>
