<svg width="298" height="201" viewBox="0 0 298 201" fill="none" xmlns="http://www.w3.org/2000/svg">
<g filter="url(#filter0_d_614_1948)">
<path d="M128.677 0.730799C0.201797 -3.66578 -3.64815 52.3359 8.58087 83.1481C13.3548 92.4729 12.8232 99.7953 11.9606 102.291C10.834 104.871 8.20468 111.327 6.69993 116.515C-8.24726 180.709 62.7519 190.21 89.1586 192.145C110.284 193.693 166.893 192.79 192.557 192.145C210.338 192.471 251.405 189.054 273.425 172.774C300.95 152.425 292.828 117.988 290.16 113.644C290.318 109.745 281.492 99.023 287.639 87.4889C296.087 73.8429 294.336 55.0172 292.404 47.31C282.673 17.7755 259.275 -4.35914 128.677 0.730799Z" fill="#FFEEA0"/>
</g>
<defs>
<filter id="filter0_d_614_1948" x="0" y="0" width="298" height="201" filterUnits="userSpaceOnUse" color-interpolation-filters="sRGB">
<feFlood flood-opacity="0" result="BackgroundImageFix"/>
<feColorMatrix in="SourceAlpha" type="matrix" values="0 0 0 0 0 0 0 0 0 0 0 0 0 0 0 0 0 0 127 0" result="hardAlpha"/>
<feOffset dy="4"/>
<feGaussianBlur stdDeviation="2"/>
<feComposite in2="hardAlpha" operator="out"/>
<feColorMatrix type="matrix" values="0 0 0 0 0 0 0 0 0 0 0 0 0 0 0 0 0 0 0.25 0"/>
<feBlend mode="normal" in2="BackgroundImageFix" result="effect1_dropShadow_614_1948"/>
<feBlend mode="normal" in="SourceGraphic" in2="effect1_dropShadow_614_1948" result="shape"/>
</filter>
</defs>
</svg>
