{
	"asset":{
		"generator":"Khronos glTF Blender I/O v4.1.63",
		"version":"2.0"
	},
	"scene":0,
	"scenes":[
		{
			"name":"Scene",
			"nodes":[
				0
			]
		}
	],
	"nodes":[
		{
			"mesh":0,
			"name":"Body"
		}
	],
	"materials":[
		{
			"doubleSided":true,
			"name":"Body",
			"pbrMetallicRoughness":{
				"baseColorFactor":[
					0.2882061302661896,
					0.17424240708351135,
					0.5457093715667725,
					1
				],
				"metallicFactor":0,
				"roughnessFactor":7
			}
		},
		{
			"doubleSided":true,
			"name":"eYE",
			"pbrMetallicRoughness":{
				"baseColorFactor":[
					0,
					0,
					0,
					1
				],
				"metallicFactor":0,
				"roughnessFactor":7
			}
		},
		{
			"doubleSided":true,
			"name":"Lip",
			"normalTexture":{
				"index":0
			},
			"pbrMetallicRoughness":{
				"baseColorTexture":{
					"index":1
				},
				"metallicFactor":0
			}
		},
		{
			"doubleSided":true,
			"name":"Material.008",
			"pbrMetallicRoughness":{
				"baseColorFactor":[
					0.02732057124376297,
					0.04091516509652138,
					0.21586057543754578,
					1
				],
				"metallicFactor":0,
				"roughnessFactor":0.5
			}
		}
	],
	"meshes":[
		{
			"name":"Cube.001",
			"primitives":[
				{
					"attributes":{
						"POSITION":0,
						"NORMAL":1,
						"TEXCOORD_0":2
					},
					"indices":3,
					"material":0
				},
				{
					"attributes":{
						"POSITION":4,
						"NORMAL":5,
						"TEXCOORD_0":6
					},
					"indices":7,
					"material":1
				},
				{
					"attributes":{
						"POSITION":8,
						"NORMAL":9,
						"TEXCOORD_0":10
					},
					"indices":11,
					"material":2
				},
				{
					"attributes":{
						"POSITION":12,
						"NORMAL":13,
						"TEXCOORD_0":14
					},
					"indices":15,
					"material":3
				}
			]
		}
	],
	"textures":[
		{
			"sampler":0,
			"source":0
		},
		{
			"sampler":0,
			"source":1
		}
	],
	"images":[
		{
			"mimeType":"image/png",
			"name":"Sol_color_normal",
			"uri":"Sol_color/Sol_color_normal.png"
		},
		{
			"mimeType":"image/png",
			"name":"Sol_Texture5",
			"uri":"Sol_color/Sol_Texture5.png"
		}
	],
	"accessors":[
		{
			"bufferView":0,
			"componentType":5126,
			"count":4260,
			"max":[
				0.4868680536746979,
				1.119762659072876,
				0.4167483150959015
			],
			"min":[
				-0.48686808347702026,
				0.0031965570524334908,
				-0.38674232363700867
			],
			"type":"VEC3"
		},
		{
			"bufferView":1,
			"componentType":5126,
			"count":4260,
			"type":"VEC3"
		},
		{
			"bufferView":2,
			"componentType":5126,
			"count":4260,
			"type":"VEC2"
		},
		{
			"bufferView":3,
			"componentType":5123,
			"count":23808,
			"type":"SCALAR"
		},
		{
			"bufferView":4,
			"componentType":5126,
			"count":8292,
			"max":[
				0.04526447877287865,
				0.897451639175415,
				0.42610645294189453
			],
			"min":[
				-0.04526447504758835,
				0.829013466835022,
				0.3415739834308624
			],
			"type":"VEC3"
		},
		{
			"bufferView":5,
			"componentType":5126,
			"count":8292,
			"type":"VEC3"
		},
		{
			"bufferView":6,
			"componentType":5126,
			"count":8292,
			"type":"VEC2"
		},
		{
			"bufferView":7,
			"componentType":5123,
			"count":46080,
			"type":"SCALAR"
		},
		{
			"bufferView":8,
			"componentType":5126,
			"count":1598,
			"max":[
				0.0685124397277832,
				0.8625257611274719,
				0.4256359338760376
			],
			"min":[
				-0.0685124397277832,
				0.7477335929870605,
				0.33757975697517395
			],
			"type":"VEC3"
		},
		{
			"bufferView":9,
			"componentType":5126,
			"count":1598,
			"type":"VEC3"
		},
		{
			"bufferView":10,
			"componentType":5126,
			"count":1598,
			"type":"VEC2"
		},
		{
			"bufferView":11,
			"componentType":5123,
			"count":9216,
			"type":"SCALAR"
		},
		{
			"bufferView":12,
			"componentType":5126,
			"count":2492,
			"max":[
				0.12035965919494629,
				1.1980177164077759,
				0.06665335595607758
			],
			"min":[
				-0.12035965174436569,
				1.0889381170272827,
				-0.15468356013298035
			],
			"type":"VEC3"
		},
		{
			"bufferView":13,
			"componentType":5126,
			"count":2492,
			"type":"VEC3"
		},
		{
			"bufferView":14,
			"componentType":5126,
			"count":2492,
			"type":"VEC2"
		},
		{
			"bufferView":15,
			"componentType":5123,
			"count":13824,
			"type":"SCALAR"
		}
	],
	"bufferViews":[
		{
			"buffer":0,
			"byteLength":51120,
			"byteOffset":0,
			"target":34962
		},
		{
			"buffer":0,
			"byteLength":51120,
			"byteOffset":51120,
			"target":34962
		},
		{
			"buffer":0,
			"byteLength":34080,
			"byteOffset":102240,
			"target":34962
		},
		{
			"buffer":0,
			"byteLength":47616,
			"byteOffset":136320,
			"target":34963
		},
		{
			"buffer":0,
			"byteLength":99504,
			"byteOffset":183936,
			"target":34962
		},
		{
			"buffer":0,
			"byteLength":99504,
			"byteOffset":283440,
			"target":34962
		},
		{
			"buffer":0,
			"byteLength":66336,
			"byteOffset":382944,
			"target":34962
		},
		{
			"buffer":0,
			"byteLength":92160,
			"byteOffset":449280,
			"target":34963
		},
		{
			"buffer":0,
			"byteLength":19176,
			"byteOffset":541440,
			"target":34962
		},
		{
			"buffer":0,
			"byteLength":19176,
			"byteOffset":560616,
			"target":34962
		},
		{
			"buffer":0,
			"byteLength":12784,
			"byteOffset":579792,
			"target":34962
		},
		{
			"buffer":0,
			"byteLength":18432,
			"byteOffset":592576,
			"target":34963
		},
		{
			"buffer":0,
			"byteLength":29904,
			"byteOffset":611008,
			"target":34962
		},
		{
			"buffer":0,
			"byteLength":29904,
			"byteOffset":640912,
			"target":34962
		},
		{
			"buffer":0,
			"byteLength":19936,
			"byteOffset":670816,
			"target":34962
		},
		{
			"buffer":0,
			"byteLength":27648,
			"byteOffset":690752,
			"target":34963
		}
	],
	"samplers":[
		{
			"magFilter":9729,
			"minFilter":9987
		}
	],
	"buffers":[
		{
			"byteLength":718400,
			"uri":"Sol6.bin"
		}
	]
}
