{
	"asset":{
		"generator":"Khronos glTF Blender I/O v4.1.63",
		"version":"2.0"
	},
	"scene":0,
	"scenes":[
		{
			"name":"Scene",
			"nodes":[
				0
			]
		}
	],
	"nodes":[
		{
			"mesh":0,
			"name":"Sol",
			"scale":[
				0.04652871564030647,
				0.042751628905534744,
				0.033152736723423004
			],
			"translation":[
				0,
				1.1483138799667358,
				0.07061866670846939
			]
		}
	],
	"materials":[
		{
			"doubleSided":true,
			"name":"eYE",
			"pbrMetallicRoughness":{
				"baseColorFactor":[
					0,
					0,
					0,
					1
				],
				"metallicFactor":0,
				"roughnessFactor":7
			}
		},
		{
			"doubleSided":true,
			"name":"Body",
			"pbrMetallicRoughness":{
				"baseColorFactor":[
					0.2882061302661896,
					0.17424240708351135,
					0.5457093715667725,
					1
				],
				"metallicFactor":0,
				"roughnessFactor":7
			}
		},
		{
			"doubleSided":true,
			"name":"Hat",
			"pbrMetallicRoughness":{
				"baseColorFactor":[
					0.02732057124376297,
					0.04091516509652138,
					0.21586057543754578,
					1
				],
				"metallicFactor":0,
				"roughnessFactor":7
			}
		},
		{
			"doubleSided":true,
			"name":"Lip",
			"pbrMetallicRoughness":{
				"baseColorFactor":[
					0.800000011920929,
					0.800000011920929,
					0.800000011920929,
					1
				],
				"metallicFactor":0,
				"roughnessFactor":0.5
			}
		}
	],
	"meshes":[
		{
			"name":"Sphere.001",
			"primitives":[
				{
					"attributes":{
						"POSITION":0,
						"NORMAL":1,
						"TEXCOORD_0":2
					},
					"indices":3,
					"material":0
				},
				{
					"attributes":{
						"POSITION":4,
						"NORMAL":5,
						"TEXCOORD_0":6
					},
					"indices":7,
					"material":1
				},
				{
					"attributes":{
						"POSITION":8,
						"NORMAL":9,
						"TEXCOORD_0":10
					},
					"indices":11,
					"material":2
				},
				{
					"attributes":{
						"POSITION":12,
						"NORMAL":13,
						"TEXCOORD_0":14
					},
					"indices":15,
					"material":3
				}
			]
		}
	],
	"accessors":[
		{
			"bufferView":0,
			"componentType":5126,
			"count":6219,
			"max":[
				1.9439624547958374,
				5.708454608917236,
				12.926365852355957
			],
			"min":[
				-1.9473530054092407,
				2.506786823272705,
				7.8267903327941895
			],
			"type":"VEC3"
		},
		{
			"bufferView":1,
			"componentType":5126,
			"count":6219,
			"type":"VEC3"
		},
		{
			"bufferView":2,
			"componentType":5126,
			"count":6219,
			"type":"VEC2"
		},
		{
			"bufferView":3,
			"componentType":5123,
			"count":34560,
			"type":"SCALAR"
		},
		{
			"bufferView":4,
			"componentType":5126,
			"count":4182,
			"max":[
				20.92594337463379,
				16.10857582092285,
				12.361815452575684
			],
			"min":[
				-20.929330825805664,
				-36.12643814086914,
				-36.1102294921875
			],
			"type":"VEC3"
		},
		{
			"bufferView":5,
			"componentType":5126,
			"count":4182,
			"type":"VEC3"
		},
		{
			"bufferView":6,
			"componentType":5126,
			"count":4182,
			"type":"VEC2"
		},
		{
			"bufferView":7,
			"componentType":5123,
			"count":23808,
			"type":"SCALAR"
		},
		{
			"bufferView":8,
			"componentType":5126,
			"count":2334,
			"max":[
				5.17186975479126,
				19.769495010375977,
				-8.758301734924316
			],
			"min":[
				-5.175258159637451,
				14.666545867919922,
				-22.110857009887695
			],
			"type":"VEC3"
		},
		{
			"bufferView":9,
			"componentType":5126,
			"count":2334,
			"type":"VEC3"
		},
		{
			"bufferView":10,
			"componentType":5126,
			"count":2334,
			"type":"VEC2"
		},
		{
			"bufferView":11,
			"componentType":5123,
			"count":13824,
			"type":"SCALAR"
		},
		{
			"bufferView":12,
			"componentType":5126,
			"count":1598,
			"max":[
				2.943258285522461,
				4.074557781219482,
				12.897984504699707
			],
			"min":[
				-2.946648597717285,
				-1.2956308126449585,
				7.5858330726623535
			],
			"type":"VEC3"
		},
		{
			"bufferView":13,
			"componentType":5126,
			"count":1598,
			"type":"VEC3"
		},
		{
			"bufferView":14,
			"componentType":5126,
			"count":1598,
			"type":"VEC2"
		},
		{
			"bufferView":15,
			"componentType":5123,
			"count":9216,
			"type":"SCALAR"
		}
	],
	"bufferViews":[
		{
			"buffer":0,
			"byteLength":74628,
			"byteOffset":0,
			"target":34962
		},
		{
			"buffer":0,
			"byteLength":74628,
			"byteOffset":74628,
			"target":34962
		},
		{
			"buffer":0,
			"byteLength":49752,
			"byteOffset":149256,
			"target":34962
		},
		{
			"buffer":0,
			"byteLength":69120,
			"byteOffset":199008,
			"target":34963
		},
		{
			"buffer":0,
			"byteLength":50184,
			"byteOffset":268128,
			"target":34962
		},
		{
			"buffer":0,
			"byteLength":50184,
			"byteOffset":318312,
			"target":34962
		},
		{
			"buffer":0,
			"byteLength":33456,
			"byteOffset":368496,
			"target":34962
		},
		{
			"buffer":0,
			"byteLength":47616,
			"byteOffset":401952,
			"target":34963
		},
		{
			"buffer":0,
			"byteLength":28008,
			"byteOffset":449568,
			"target":34962
		},
		{
			"buffer":0,
			"byteLength":28008,
			"byteOffset":477576,
			"target":34962
		},
		{
			"buffer":0,
			"byteLength":18672,
			"byteOffset":505584,
			"target":34962
		},
		{
			"buffer":0,
			"byteLength":27648,
			"byteOffset":524256,
			"target":34963
		},
		{
			"buffer":0,
			"byteLength":19176,
			"byteOffset":551904,
			"target":34962
		},
		{
			"buffer":0,
			"byteLength":19176,
			"byteOffset":571080,
			"target":34962
		},
		{
			"buffer":0,
			"byteLength":12784,
			"byteOffset":590256,
			"target":34962
		},
		{
			"buffer":0,
			"byteLength":18432,
			"byteOffset":603040,
			"target":34963
		}
	],
	"buffers":[
		{
			"byteLength":621472,
			"uri":"Sol1.bin"
		}
	]
}
